<svg width="53" height="63" viewBox="0 0 53 63" fill="none" xmlns="http://www.w3.org/2000/svg">
<g id="Group 25">
<path id="Vector" d="M44.2475 20.8798H9.13873V8.95102H44.2475V20.8798ZM45.4125 6.69727H8.04998C7.46806 6.69727 6.88498 7.17717 6.88498 7.86227V22.121C6.88498 22.7029 7.36489 23.286 8.04998 23.286H45.4125C45.9944 23.286 46.5775 22.8061 46.5775 22.121V7.78602C46.5775 7.17638 46.0698 6.69727 45.4125 6.69727Z" fill="white" stroke="white" stroke-width="0.5"/>
<path id="Vector_2" d="M17.0475 28.0474H8.04998C7.46806 28.0474 6.88498 28.5273 6.88498 29.2124V33.9399C6.88498 34.5218 7.36489 35.1049 8.04998 35.1049H17.0475C17.6294 35.1049 18.2125 34.625 18.2125 33.9399V29.2124C18.2125 28.5405 17.7193 28.0474 17.0475 28.0474ZM15.9587 32.7749H9.21498V30.3011H15.9587V32.7749Z" fill="white" stroke="white" stroke-width="0.5"/>
<path id="Vector_3" d="M31.23 28.0474H22.2325C21.6506 28.0474 21.0675 28.5273 21.0675 29.2124V33.9399C21.0675 34.5218 21.5474 35.1049 22.2325 35.1049H31.23C31.8119 35.1049 32.395 34.625 32.395 33.9399V29.2124C32.395 28.5405 31.9018 28.0474 31.23 28.0474ZM30.1412 32.7749H23.3975V30.3011H30.1412V32.7749Z" fill="white" stroke="white" stroke-width="0.5"/>
<path id="Vector_4" d="M45.4125 28.0474H36.415C35.8331 28.0474 35.25 28.5273 35.25 29.2124V33.9399C35.25 34.5218 35.7299 35.1049 36.415 35.1049H45.4125C45.9944 35.1049 46.5775 34.625 46.5775 33.9399V29.2124C46.5775 28.5405 46.0843 28.0474 45.4125 28.0474ZM44.3238 32.7749H37.58V30.3011H44.3238V32.7749Z" fill="white" stroke="white" stroke-width="0.5"/>
<path id="Vector_5" d="M17.0475 38.6465H8.04998C7.46806 38.6465 6.88498 39.1264 6.88498 39.8115V44.539C6.88498 45.1209 7.36489 45.704 8.04998 45.704H17.0475C17.6294 45.704 18.2125 45.2241 18.2125 44.539V39.8115C18.2125 39.1397 17.7193 38.6465 17.0475 38.6465ZM15.9587 43.374H9.21498V40.9002H15.9587V43.374Z" fill="white" stroke="white" stroke-width="0.5"/>
<path id="Vector_6" d="M31.23 38.6465H22.2325C21.6506 38.6465 21.0675 39.1264 21.0675 39.8115V44.539C21.0675 45.1209 21.5474 45.704 22.2325 45.704H31.23C31.8119 45.704 32.395 45.2241 32.395 44.539V39.8115C32.395 39.1397 31.9018 38.6465 31.23 38.6465ZM30.1412 43.374H23.3975V40.9002H30.1412V43.374Z" fill="white" stroke="white" stroke-width="0.5"/>
<path id="Vector_7" d="M45.4125 38.6465H36.415C35.8331 38.6465 35.25 39.1264 35.25 39.8115V44.539C35.25 45.1209 35.7299 45.704 36.415 45.704H45.4125C45.9944 45.704 46.5775 45.2241 46.5775 44.539V39.8115C46.5775 39.1397 46.0843 38.6465 45.4125 38.6465ZM44.3238 43.374H37.58V40.9002H44.3238V43.374Z" fill="white" stroke="white" stroke-width="0.5"/>
<path id="Vector_8" d="M17.0475 49.3213H8.04998C7.46806 49.3213 6.88498 49.8012 6.88498 50.4863V55.2138C6.88498 55.7957 7.36489 56.3788 8.04998 56.3788H17.0475C17.6294 56.3788 18.2125 55.8989 18.2125 55.2138V50.4863C18.2125 49.8145 17.7193 49.3213 17.0475 49.3213ZM15.9587 54.0488H9.21498V51.575H15.9587V54.0488Z" fill="white" stroke="white" stroke-width="0.5"/>
<path id="Vector_9" d="M31.23 49.3213H22.2325C21.6506 49.3213 21.0675 49.8012 21.0675 50.4863V55.2138C21.0675 55.7957 21.5474 56.3788 22.2325 56.3788H31.23C31.8119 56.3788 32.395 55.8989 32.395 55.2138V50.4863C32.395 49.8145 31.9018 49.3213 31.23 49.3213ZM30.1412 54.0488H23.3975V51.575H30.1412V54.0488Z" fill="white" stroke="white" stroke-width="0.5"/>
<path id="Vector_10" d="M45.4125 49.3213H36.415C35.8331 49.3213 35.25 49.8012 35.25 50.4863V55.2138C35.25 55.7957 35.7299 56.3788 36.415 56.3788H45.4125C45.9944 56.3788 46.5775 55.8989 46.5775 55.2138V50.4863C46.5775 49.8145 46.0843 49.3213 45.4125 49.3213ZM44.3238 54.0488H37.58V51.575H44.3238V54.0488Z" fill="white" stroke="white" stroke-width="0.5"/>
<path id="Vector_11" d="M52.525 58.7212V4.27875C52.525 2.31068 50.9643 0.75 48.9963 0.75H4.46625C2.49818 0.75 0.9375 2.31068 0.9375 4.27875V58.7212C0.9375 60.6893 2.49818 62.25 4.46625 62.25H48.9963C50.8843 62.25 52.525 60.6931 52.525 58.7212ZM50.195 58.7212C50.195 59.4134 49.6293 59.92 48.9963 59.92H4.46625C3.77406 59.92 3.2675 59.3543 3.2675 58.7212V4.27875C3.2675 3.58656 3.83317 3.08 4.46625 3.08H48.9963C49.6884 3.08 50.195 3.64567 50.195 4.27875V58.7212Z" fill="white" stroke="white" stroke-width="0.5"/>
</g>
</svg>
