<svg width="343" height="214" viewBox="0 0 343 214" fill="none" xmlns="http://www.w3.org/2000/svg">
<circle cx="235.5" cy="195.5" r="15.5" stroke="#00CCCB" stroke-width="6"/>
<circle cx="291" cy="12" r="10.0541" stroke="#00CCCB" stroke-width="3.89189"/>
<circle cx="12" cy="145" r="10.0541" stroke="#00CCCB" stroke-width="3.89189"/>
<path d="M318.513 123.028C318.854 125.944 320.158 128.275 322.138 129.783C324.11 131.286 326.759 131.976 329.802 131.62C332.81 131.268 335.212 129.985 336.775 128.065C338.34 126.143 339.068 123.577 338.727 120.663L337.918 113.742C337.879 113.407 337.941 113.144 338.095 112.95C338.253 112.749 338.499 112.631 338.82 112.594L340.283 112.422L339.939 109.48L336.258 109.911C335.447 110.006 334.896 110.238 334.579 110.642C334.261 111.047 334.163 111.64 334.258 112.455L335.243 120.876C335.487 122.962 335.035 124.704 334.03 125.991C333.003 127.305 331.404 128.139 329.384 128.375C327.35 128.613 325.607 128.174 324.312 127.144C323.035 126.129 322.199 124.544 321.957 122.469L320.967 114.009C320.872 113.195 320.631 112.642 320.22 112.323C319.808 112.003 319.208 111.905 318.397 112L314.754 112.426L315.098 115.368L316.56 115.197C316.882 115.159 317.149 115.217 317.349 115.376C317.543 115.53 317.665 115.771 317.704 116.106L318.513 123.028Z" fill="#00CCCB" stroke="#00CCCB" stroke-width="0.542986" stroke-miterlimit="22.9256"/>
<path d="M144.08 75.0487C142.699 79.0499 142.913 82.885 144.504 86.0692C146.089 89.242 149.045 91.777 153.156 93.1965C157.22 94.5998 161.089 94.4176 164.285 92.8889C167.482 91.359 170.012 88.4754 171.392 84.4787L174.67 74.9838C174.829 74.5248 175.073 74.222 175.39 74.0635C175.717 73.9 176.106 73.8999 176.54 74.0498L178.516 74.7322L179.91 70.6961L174.936 68.9787C173.841 68.6006 172.992 68.562 172.334 68.8905C171.676 69.2196 171.181 69.9295 170.795 71.0476L166.806 82.6004C165.818 85.4621 164.155 87.4458 162.068 88.4963C159.937 89.5692 157.373 89.6632 154.643 88.7206C151.896 87.7719 149.941 86.124 148.927 83.9845C147.927 81.8755 147.848 79.2986 148.83 76.4523L152.837 64.8472C153.223 63.7303 153.259 62.8635 152.933 62.1946C152.605 61.5238 151.9 61.0249 150.803 60.6463L145.881 58.9468L144.488 62.9829L146.464 63.6653C146.898 63.8153 147.203 64.0549 147.36 64.3855C147.512 64.7058 147.517 65.0948 147.359 65.5539L144.08 75.0487Z" fill="#00CCCB" stroke="#00CCCB" stroke-width="0.542986" stroke-miterlimit="22.9256"/>
</svg>
