<svg width="295" height="293" viewBox="0 0 295 293" fill="none" xmlns="http://www.w3.org/2000/svg">
<path fill-rule="evenodd" clip-rule="evenodd" d="M149.195 70.3218C179.411 70.3218 205.638 88.3551 217.772 114.246H80.6179C92.7512 88.3551 118.978 70.3218 149.195 70.3218ZM217.772 178.75C205.639 204.642 179.412 222.676 149.195 222.676C118.978 222.676 92.7502 204.642 80.6172 178.75H217.772Z" fill="#00CCCB"/>
<path fill-rule="evenodd" clip-rule="evenodd" d="M163.207 0.646354C177.843 2.05235 191.851 5.63718 204.907 11.0749C222.745 18.5059 238.795 29.3903 252.221 42.8918C271.214 61.992 284.986 86.3449 291.205 113.596H290.428C289.655 110.503 288.777 107.455 287.798 104.458C286.76 101.281 285.603 98.1482 284.334 95.0672C280.964 86.8849 276.811 79.1078 271.971 71.8315C267.077 64.4759 261.486 57.6346 255.292 51.407C249.099 45.1788 242.296 39.5551 234.981 34.6349C227.745 29.7677 220.012 25.5918 211.875 22.2037C203.895 18.8798 195.526 16.3107 186.859 14.585C178.409 12.9031 169.672 12.0208 160.732 12.0208C156.226 12.0208 151.771 12.2449 147.379 12.6828C130.006 12.916 113.44 16.4931 98.2941 22.8007C82.0202 29.5797 67.3632 39.5235 55.0895 51.8661C42.8159 64.2083 32.9276 78.948 26.1864 95.3133C23.7595 101.206 21.7404 107.311 20.1615 113.596H19.3806C20.2486 109.812 21.2666 106.073 22.4281 102.388C23.6821 98.4085 25.0955 94.515 26.6605 90.7162C30.3193 81.8343 34.8251 73.3942 40.0752 65.499C45.3751 57.529 51.4394 50.1105 58.1609 43.3509C84.4087 16.9557 120.676 0.625505 160.732 0.625505C161.559 0.625505 162.384 0.632454 163.207 0.646354ZM289.261 114.246H288.495H281.251H278.387C276.785 107.731 274.711 101.408 272.2 95.3133C265.459 78.948 255.571 64.2083 243.297 51.8661C231.024 39.5235 216.367 29.5797 200.091 22.802C188.326 17.9016 175.704 14.6486 162.512 13.3316C170.751 13.4407 178.807 14.3049 186.612 15.8586C195.203 17.5687 203.49 20.112 211.385 23.4008C219.44 26.7552 227.098 30.8902 234.265 35.7104C241.499 40.5771 248.237 46.1476 254.379 52.3251C260.522 58.502 266.061 65.2769 270.901 72.5519C275.695 79.7584 279.807 87.4594 283.144 95.5593C284.395 98.5961 285.539 101.698 286.572 104.859C287.579 107.943 288.478 111.073 289.261 114.246ZM17.913 114.246H17.1358H9.88868H7.034C8.86824 106.04 11.386 98.0929 14.5265 90.4701C21.9156 72.5334 32.7393 56.3937 46.1657 42.8918C71.9782 16.9341 107.439 0.669984 146.671 0C111.871 3.33672 80.6214 18.9284 57.2479 42.4328C50.4759 49.2432 44.3595 56.7276 39.0057 64.7786C33.7089 72.7437 29.1624 81.2603 25.4701 90.2241C23.8805 94.0821 22.4533 98.0092 21.1968 101.997C19.9511 105.95 18.8643 109.989 17.9448 114.103L17.913 114.246ZM9.88868 178.75H17.1358H17.913L17.9448 178.892C18.8643 183.006 19.9511 187.045 21.1968 190.998C22.4533 194.986 23.8805 198.913 25.4701 202.771C29.1624 211.735 33.7086 220.252 39.0054 228.217C44.3592 236.268 50.4756 243.753 57.2479 250.564C64.0199 257.374 71.4629 263.525 79.4686 268.908C87.3888 274.235 95.8582 278.807 104.772 282.52C113.511 286.16 122.671 288.973 132.155 290.863C136.916 291.812 141.76 292.527 146.673 293C127.865 292.677 109.916 288.768 93.478 281.922C75.6415 274.491 59.5919 263.606 46.1657 250.105C32.7393 236.603 21.9156 220.463 14.5265 202.525C11.386 194.902 8.86824 186.956 7.034 178.75H9.88868ZM20.1615 179.399C21.7404 185.684 23.7609 191.79 26.1878 197.682C32.9276 214.049 42.8159 228.788 55.0895 241.13C67.3632 253.473 82.0202 263.417 98.2941 270.196C113.44 276.503 130.006 280.081 147.379 280.314C151.771 280.752 156.226 280.976 160.732 280.976C169.672 280.976 178.409 280.094 186.859 278.411C195.526 276.686 203.895 274.117 211.875 270.793C220.012 267.405 227.745 263.229 234.981 258.362C242.296 253.441 249.099 247.818 255.292 241.59C261.486 235.362 267.078 228.52 271.971 221.164C276.811 213.888 280.964 206.111 284.333 197.928C285.602 194.846 286.759 191.712 287.798 188.534C288.778 185.538 289.655 182.492 290.428 179.399H291.206C289.385 187.375 286.918 195.103 283.86 202.525C276.471 220.463 265.647 236.603 252.221 250.105C238.795 263.606 222.745 274.491 204.907 281.922C191.851 287.359 177.843 290.943 163.207 292.35C162.384 292.364 161.559 292.371 160.732 292.371C151.038 292.371 141.564 291.415 132.402 289.589C122.995 287.715 113.916 284.928 105.262 281.323C96.4291 277.643 88.0361 273.112 80.1849 267.833C72.2595 262.503 64.8824 256.405 58.1609 249.646C51.439 242.886 45.3751 235.467 40.0752 227.497C34.8251 219.602 30.3193 211.161 26.6605 202.279C25.0955 198.48 23.6818 194.587 22.4281 190.607C21.2666 186.922 20.2486 183.183 19.3806 179.399H20.1615ZM162.512 279.665C175.704 278.348 188.326 275.095 200.091 270.194C216.367 263.417 231.024 253.473 243.297 241.13C255.571 228.788 265.459 214.049 272.199 197.682C274.709 191.587 276.785 185.264 278.387 178.75H281.251H288.498H289.261C288.478 181.921 287.58 185.05 286.572 188.133C285.539 191.295 284.394 194.398 283.142 197.436C279.807 205.536 275.695 213.237 270.901 220.444C266.062 227.719 260.522 234.494 254.379 240.672C248.237 246.849 241.499 252.42 234.265 257.286C227.098 262.107 219.44 266.242 211.385 269.596C203.49 272.884 195.203 275.428 186.612 277.138C178.807 278.692 170.751 279.556 162.512 279.665ZM252.422 114.246H245.012H242.075C241.434 112.377 240.738 110.532 239.99 108.715C235.016 96.6365 227.716 85.7576 218.655 76.6461C209.595 67.5346 198.778 60.194 186.767 55.1924C178.528 51.7612 169.72 49.4249 160.524 48.364L160.732 48.3633C167.262 48.3633 173.64 49.0072 179.805 50.2339C186.137 51.4943 192.244 53.3684 198.06 55.7908C203.994 58.2615 209.635 61.3077 214.915 64.8596C220.244 68.4451 225.209 72.5512 229.737 77.1052C234.266 81.6589 238.349 86.6521 241.915 92.0116C245.446 97.3208 248.476 102.994 250.933 108.961V108.964C251.307 109.873 251.666 110.782 252.008 111.689C252.32 112.517 252.628 113.369 252.931 114.246H252.422ZM149.363 47.7145L149.194 47.7141C135.88 47.7141 123.188 50.3746 111.62 55.1924C99.6086 60.194 88.7918 67.5346 79.7312 76.6461C70.6709 85.7576 63.3709 96.6352 58.3972 108.714C57.7355 110.32 57.1152 111.948 56.5374 113.596H55.4648C55.9199 112.124 56.4037 110.666 56.9158 109.222C57.5351 107.479 58.1868 105.776 58.87 104.117C61.6504 97.3687 65.0735 90.9559 69.0623 84.9577C73.0885 78.9035 77.6955 73.267 82.8029 68.1313C87.9099 62.9952 93.5146 58.3623 99.5353 54.3136C105.5 50.3027 111.877 46.86 118.588 44.064C125.162 41.3253 132.06 39.2076 139.208 37.7832C146.169 36.3963 153.367 35.669 160.732 35.669L161.227 35.6704C171.866 36.8269 182.058 39.4978 191.583 43.4652C205.155 49.1198 217.366 57.4015 227.579 67.6722C240.174 80.338 249.753 96.042 255.139 113.596H254.072C253.802 112.82 253.515 112.032 253.214 111.233C252.861 110.298 252.498 109.375 252.123 108.467C249.632 102.419 246.562 96.6696 242.984 91.2909C239.365 85.8508 235.229 80.7915 230.651 76.1871C226.072 71.5823 221.041 67.4234 215.631 63.784C210.282 60.1853 204.565 57.0984 198.55 54.5936C192.649 52.1361 186.46 50.2363 180.052 48.9606C173.803 47.7169 167.342 47.0647 160.732 47.0647C156.888 47.0647 153.094 47.2853 149.363 47.7145ZM53.9174 114.246H53.3749H45.9605H43.0529C44.1152 110.71 45.3447 107.249 46.7359 103.871C52.3589 90.2223 60.594 77.943 70.8074 67.6722C81.0205 57.4015 93.2312 49.1198 106.804 43.4652C119.713 38.0883 133.848 35.0915 148.659 35.0213C145.383 35.3768 142.148 35.8751 138.961 36.51C131.736 37.9493 124.757 40.0934 118.098 42.8668C111.306 45.6969 104.853 49.1802 98.819 53.2377C92.7181 57.3406 87.0474 62.0264 81.8896 67.2128C76.7321 72.3997 72.0725 78.1022 67.9925 84.2373C63.9573 90.3054 60.4934 96.7943 57.6795 103.625C56.9704 105.347 56.3097 107.068 55.7001 108.786C55.083 110.525 54.5073 112.283 53.9737 114.058L53.9174 114.246ZM45.9605 178.75H53.3749H53.9167L53.9723 178.935C54.5069 180.716 55.0816 182.471 55.6943 184.197C56.3059 185.92 56.9683 187.645 57.6795 189.372C60.4934 196.202 63.9573 202.691 67.9925 208.759C72.0725 214.894 76.7321 220.597 81.8896 225.784C87.0471 230.97 92.7177 235.656 98.8186 239.758C104.854 243.816 111.307 247.3 118.1 250.13C124.757 252.903 131.736 255.047 138.961 256.487C142.148 257.121 145.383 257.62 148.66 257.975C133.85 257.905 119.713 254.908 106.806 249.531C93.233 243.877 81.0205 235.595 70.8074 225.325C60.594 215.053 52.3589 202.775 46.7359 189.126C45.3447 185.747 44.1124 182.285 43.0515 178.75H45.9605ZM56.5361 179.399C57.1149 181.048 57.7355 182.676 58.3972 184.283C63.3709 196.361 70.6709 207.239 79.7312 216.35C88.7918 225.462 99.61 232.803 111.621 237.804C123.188 242.622 135.88 245.282 149.194 245.282L149.364 245.282C153.095 245.711 156.888 245.932 160.732 245.932C167.343 245.932 173.803 245.28 180.052 244.036C186.46 242.76 192.648 240.86 198.549 238.403C204.564 235.898 210.282 232.811 215.631 229.212C221.041 225.573 226.072 221.414 230.651 216.809C235.229 212.205 239.365 207.146 242.984 201.706C246.562 196.326 249.633 190.576 252.124 184.527C252.504 183.602 252.868 182.681 253.213 181.767C253.501 181.003 253.787 180.214 254.071 179.399H255.137C254.12 182.709 252.957 185.953 251.651 189.124C246.028 202.773 237.792 215.053 227.579 225.325C210.184 242.818 187.028 254.525 161.221 257.326L160.732 257.327C153.368 257.327 146.17 256.6 139.208 255.213C132.06 253.789 125.162 251.671 118.589 248.933C111.878 246.137 105.5 242.694 99.535 238.682C93.5143 234.634 87.9099 230.001 82.8029 224.865C77.6955 219.729 73.0885 214.093 69.0623 208.039C65.0735 202.041 61.6504 195.628 58.87 188.879C58.1851 187.216 57.5313 185.509 56.91 183.761C56.3965 182.314 55.9137 180.86 55.4624 179.399H56.5361ZM160.524 244.633C169.72 243.572 178.528 241.235 186.765 237.804C198.777 232.803 209.595 225.462 218.655 216.35C227.716 207.239 235.016 196.36 239.99 184.281C240.738 182.464 241.434 180.62 242.076 178.75H245.012H252.426H252.934C252.645 179.585 252.336 180.439 252.007 181.31C251.657 182.237 251.299 183.146 250.933 184.035C248.476 190.002 245.446 195.676 241.915 200.985C238.349 206.344 234.266 211.338 229.737 215.891C225.209 220.445 220.244 224.551 214.915 228.137C209.635 231.688 203.993 234.735 198.059 237.206C192.243 239.628 186.137 241.502 179.805 242.762C173.64 243.989 167.262 244.633 160.732 244.633L160.524 244.633Z" fill="#00CCCB"/>
<path fill-rule="evenodd" clip-rule="evenodd" d="M289.261 114.246H288.495H281.251H278.387C276.785 107.731 274.711 101.408 272.2 95.3133C265.459 78.948 255.571 64.2083 243.297 51.8661C231.024 39.5235 216.367 29.5797 200.091 22.802C188.326 17.9016 175.704 14.6486 162.512 13.3316C170.751 13.4407 178.807 14.3049 186.612 15.8586C195.203 17.5687 203.49 20.112 211.385 23.4008C219.44 26.7552 227.098 30.8902 234.265 35.7104C241.499 40.5771 248.237 46.1476 254.379 52.3251C260.522 58.502 266.061 65.2769 270.901 72.5519C275.695 79.7584 279.807 87.4594 283.144 95.5593C284.395 98.5961 285.539 101.698 286.572 104.859C287.579 107.943 288.478 111.073 289.261 114.246ZM17.913 114.246H17.1358H9.88868H7.034C8.86824 106.04 11.386 98.0929 14.5265 90.4701C21.9156 72.5334 32.7393 56.3937 46.1657 42.8918C71.9782 16.9341 107.439 0.669984 146.671 0C111.871 3.33672 80.6214 18.9284 57.2479 42.4328C50.4759 49.2432 44.3595 56.7276 39.0057 64.7786C33.7089 72.7437 29.1624 81.2603 25.4701 90.2241C23.8805 94.0821 22.4533 98.0092 21.1968 101.997C19.9511 105.95 18.8643 109.989 17.9448 114.103L17.913 114.246ZM9.88868 178.75H17.1358H17.913L17.9448 178.892C18.8643 183.006 19.9511 187.045 21.1968 190.998C22.4533 194.986 23.8805 198.913 25.4701 202.771C29.1624 211.735 33.7086 220.252 39.0054 228.217C44.3592 236.268 50.4756 243.753 57.2479 250.564C64.0199 257.374 71.4629 263.525 79.4686 268.908C87.3888 274.235 95.8582 278.807 104.772 282.52C113.511 286.16 122.671 288.973 132.155 290.863C136.916 291.812 141.76 292.527 146.673 293C127.865 292.677 109.916 288.768 93.478 281.922C75.6415 274.491 59.5919 263.606 46.1657 250.105C32.7393 236.603 21.9156 220.463 14.5265 202.525C11.386 194.902 8.86824 186.956 7.034 178.75H9.88868ZM162.512 279.665C175.704 278.348 188.326 275.095 200.091 270.194C216.367 263.417 231.024 253.473 243.297 241.13C255.571 228.788 265.459 214.049 272.199 197.682C274.709 191.587 276.785 185.264 278.387 178.75H281.251H288.498H289.261C288.478 181.921 287.58 185.05 286.572 188.133C285.539 191.295 284.394 194.398 283.142 197.436C279.807 205.536 275.695 213.237 270.901 220.444C266.062 227.719 260.522 234.494 254.379 240.672C248.237 246.849 241.499 252.42 234.265 257.286C227.098 262.107 219.44 266.242 211.385 269.596C203.49 272.884 195.203 275.428 186.612 277.138C178.807 278.692 170.751 279.556 162.512 279.665ZM252.422 114.246H245.012H242.075C241.434 112.377 240.738 110.532 239.99 108.715C235.016 96.6365 227.716 85.7576 218.655 76.6461C209.595 67.5346 198.778 60.194 186.767 55.1924C178.528 51.7612 169.72 49.4249 160.524 48.364L160.732 48.3633C167.262 48.3633 173.64 49.0072 179.805 50.2339C186.137 51.4943 192.244 53.3684 198.06 55.7908C203.994 58.2615 209.635 61.3077 214.915 64.8596C220.244 68.4451 225.209 72.5512 229.737 77.1052C234.266 81.6589 238.349 86.6521 241.915 92.0116C245.446 97.3208 248.476 102.994 250.933 108.963C251.307 109.873 251.666 110.782 252.008 111.689C252.32 112.517 252.628 113.369 252.931 114.246H252.422ZM53.9174 114.246H53.3749H45.9605H43.0529C44.1152 110.71 45.3447 107.249 46.7359 103.871C52.3589 90.2223 60.594 77.943 70.8074 67.6722C81.0205 57.4015 93.2312 49.1198 106.804 43.4652C119.713 38.0883 133.848 35.0915 148.659 35.0213C145.383 35.3768 142.148 35.8751 138.961 36.51C131.736 37.9493 124.757 40.0934 118.098 42.8668C111.306 45.6969 104.853 49.1802 98.819 53.2377C92.7181 57.3406 87.0474 62.0264 81.8896 67.2128C76.7321 72.3997 72.0725 78.1022 67.9925 84.2373C63.9573 90.3054 60.4934 96.7943 57.6795 103.625C56.9704 105.347 56.3097 107.068 55.7001 108.786C55.083 110.525 54.5073 112.283 53.9737 114.058L53.9174 114.246ZM45.9605 178.75H53.3749H53.9167L53.9723 178.935C54.5069 180.716 55.0816 182.471 55.6943 184.197C56.3059 185.92 56.9683 187.645 57.6795 189.372C60.4934 196.202 63.9573 202.691 67.9925 208.759C72.0725 214.894 76.7321 220.597 81.8896 225.784C87.0471 230.97 92.7177 235.656 98.8186 239.758C104.854 243.816 111.307 247.3 118.1 250.13C124.757 252.903 131.736 255.047 138.961 256.487C142.148 257.121 145.383 257.62 148.66 257.975C133.85 257.905 119.713 254.908 106.806 249.531C93.233 243.877 81.0205 235.595 70.8074 225.325C60.594 215.053 52.3589 202.775 46.7359 189.126C45.3447 185.747 44.1124 182.285 43.0515 178.75H45.9605ZM160.524 244.633C169.72 243.572 178.528 241.235 186.765 237.804C198.777 232.803 209.595 225.462 218.655 216.35C227.716 207.239 235.016 196.36 239.99 184.281C240.738 182.464 241.434 180.62 242.076 178.75H245.012H252.426H252.934C252.645 179.585 252.336 180.439 252.007 181.31C251.657 182.237 251.299 183.146 250.933 184.035C248.476 190.002 245.446 195.676 241.915 200.985C238.349 206.344 234.266 211.338 229.737 215.891C225.209 220.445 220.244 224.551 214.915 228.137C209.635 231.688 203.993 234.735 198.059 237.206C192.243 239.628 186.137 241.502 179.805 242.762C173.64 243.989 167.262 244.633 160.732 244.633L160.524 244.633Z" fill="#00CCCB"/>
<path d="M1 146.516C1 151.529 2.89299 155.986 6.00719 159.187C9.1169 162.383 13.4461 164.33 18.3258 164.33C23.2092 164.33 27.553 162.381 30.6751 159.18C33.7976 155.98 35.7003 151.526 35.7003 146.516C35.7003 141.634 33.8014 137.305 30.6844 134.197C27.5616 131.083 23.2141 129.191 18.3258 129.191C13.4409 129.191 9.10791 131.08 5.9982 134.19C2.88953 137.3 1 141.631 1 146.516ZM5.58284 146.516C5.58284 142.791 6.98789 139.493 9.26929 137.119C11.5756 134.719 14.7765 133.263 18.3258 133.263C21.8781 133.263 25.0936 134.721 27.4123 137.125C29.702 139.499 31.1167 142.794 31.1167 146.516C31.1167 150.359 29.7027 153.763 27.414 156.216C25.0953 158.701 21.8792 160.209 18.3258 160.209C14.7755 160.209 11.5738 158.703 9.26722 156.222C6.98755 153.769 5.58284 150.362 5.58284 146.516ZM44.0248 163.744H48.6923C49.7201 163.744 50.4436 163.534 50.9001 163.075C51.3566 162.615 51.566 161.888 51.566 160.855V142.176C51.566 140.278 51.2778 137.524 51.2771 137.516L51.2523 137.262H51.7385L51.8041 137.382C51.8083 137.39 53.3498 140.2 54.6035 142.043L69.811 163.744H73.8264V134.811C73.8264 134.387 73.9436 134.067 74.1633 133.846C74.3918 133.618 74.7166 133.507 75.1237 133.507H76.979V129.776H72.3595C71.3066 129.776 70.5705 129.987 70.1075 130.447C69.6462 130.905 69.4374 131.632 69.4374 132.666V151.345C69.4374 153.235 69.7744 155.992 69.7751 156L69.8044 156.258H69.3162L69.2495 156.14C69.245 156.132 67.6592 153.329 66.4003 151.478L51.2409 129.776H47.1767V158.709C47.1767 159.114 47.0561 159.438 46.8305 159.665C46.6038 159.892 46.2817 160.013 45.8795 160.013H44.0248V163.744ZM88.4071 160.855C88.4071 161.887 88.6272 162.614 89.0947 163.073C89.5637 163.533 90.2997 163.744 91.3291 163.744H106.509C107.536 163.744 108.26 163.534 108.716 163.075C109.173 162.615 109.382 161.888 109.382 160.855V156.746H105.429V158.709C105.429 159.114 105.309 159.438 105.083 159.665C104.856 159.892 104.534 160.013 104.132 160.013H94.0933C93.6914 160.013 93.3697 159.892 93.1433 159.665C92.9166 159.436 92.796 159.113 92.796 158.709V148.479H104.823V144.749H92.796V133.507H102.774C103.182 133.507 103.507 133.618 103.734 133.846C103.955 134.067 104.072 134.387 104.072 134.811V136.774H108.073V132.666C108.073 131.632 107.863 130.905 107.407 130.445C106.95 129.986 106.227 129.776 105.199 129.776H85.2545V133.507H88.4071V160.855ZM120.325 151.93C120.325 155.628 121.615 158.735 123.871 160.911C126.119 163.079 129.331 164.33 133.189 164.33C137.004 164.33 140.195 163.076 142.432 160.902C144.67 158.727 145.957 155.624 145.957 151.93V134.811C145.957 134.387 146.074 134.067 146.294 133.846C146.521 133.618 146.846 133.507 147.254 133.507H149.109V129.776H144.441C143.413 129.776 142.69 129.986 142.233 130.445C141.777 130.905 141.568 131.632 141.568 132.666V151.686C141.568 154.331 140.748 156.444 139.302 157.906C137.825 159.4 135.703 160.209 133.141 160.209C130.562 160.209 128.446 159.406 126.976 157.928C125.527 156.471 124.715 154.365 124.715 151.734V132.666C124.715 131.633 124.494 130.907 124.027 130.447C123.558 129.987 122.822 129.776 121.793 129.776H117.173V133.507H119.028C119.436 133.507 119.761 133.618 119.988 133.846C120.208 134.067 120.325 134.387 120.325 134.811V151.93ZM157.046 163.744H161.713C162.741 163.744 163.464 163.534 163.921 163.075C164.377 162.615 164.586 161.888 164.586 160.855V142.176C164.586 140.278 164.298 137.524 164.298 137.516L164.273 137.262H164.759L164.825 137.382C164.829 137.39 166.37 140.2 167.624 142.043L182.832 163.744H186.847V134.811C186.847 134.387 186.964 134.067 187.184 133.846C187.411 133.618 187.737 133.507 188.144 133.507H189.999V129.776H185.38C184.327 129.776 183.591 129.987 183.128 130.447C182.667 130.905 182.458 131.632 182.458 132.666V151.345C182.458 153.235 182.795 155.992 182.796 156L182.825 156.258H182.337L182.27 156.14C182.266 156.132 180.68 153.329 179.421 151.478L164.262 129.776H160.197V158.709C160.197 159.113 160.077 159.436 159.851 159.664C159.624 159.892 159.302 160.013 158.9 160.013H157.046V163.744ZM198.712 163.744H209.551V160.013H206.253V133.507H209.551V129.776H198.712V133.507H202.058V160.013H198.712V163.744ZM218.021 146.516C218.021 151.529 219.914 155.986 223.029 159.187C226.138 162.383 230.467 164.33 235.347 164.33C240.23 164.33 244.574 162.381 247.696 159.18C250.819 155.98 252.721 151.526 252.721 146.516C252.721 141.634 250.823 137.305 247.705 134.197C244.583 131.083 240.235 129.191 235.347 129.191C230.462 129.191 226.129 131.08 223.019 134.19C219.911 137.3 218.021 141.631 218.021 146.516ZM222.604 146.516C222.604 142.791 224.009 139.493 226.29 137.119C228.597 134.719 231.798 133.263 235.347 133.263C238.899 133.263 242.115 134.721 244.434 137.125C246.723 139.499 248.138 142.794 248.138 146.516C248.138 150.359 246.724 153.763 244.435 156.216C242.116 158.701 238.901 160.209 235.347 160.209C231.796 160.209 228.595 158.703 226.289 156.222C224.009 153.769 222.604 150.362 222.604 146.516ZM261.046 163.744H265.714C266.741 163.744 267.464 163.534 267.921 163.075C268.378 162.615 268.587 161.888 268.587 160.855V142.176C268.587 140.278 268.299 137.524 268.298 137.516L268.273 137.262H268.759L268.825 137.382C268.83 137.39 270.371 140.2 271.625 142.043L286.832 163.744H290.847V134.811C290.847 134.387 290.965 134.067 291.185 133.846C291.412 133.618 291.737 133.507 292.145 133.507H294V129.776H289.381C288.328 129.776 287.592 129.987 287.129 130.447C286.668 130.905 286.459 131.632 286.459 132.666V151.345C286.459 153.235 286.795 155.992 286.796 156L286.826 156.258H286.337L286.271 156.14C286.266 156.132 284.68 153.329 283.421 151.478L268.262 129.776H264.198V158.709C264.198 159.113 264.077 159.436 263.852 159.664C263.624 159.892 263.303 160.013 262.901 160.013H261.046V163.744Z" fill="#00CCCB" stroke="#00CCCB" stroke-width="0.755906" stroke-miterlimit="22.9256"/>
</svg>
