<svg width="48" height="63" viewBox="0 0 48 63" fill="none" xmlns="http://www.w3.org/2000/svg">
<g id="Group 26">
<path id="Vector" d="M21.0005 43.4994C21.8285 43.4994 22.5005 42.8274 22.5005 41.9994V40.4994H24.0005C24.8285 40.4994 25.5005 39.8274 25.5005 38.9994C25.5005 38.1715 24.8285 37.4995 24.0005 37.4995H22.5005V35.9995C22.5005 35.1715 21.8285 34.4995 21.0005 34.4995C20.1726 34.4995 19.5006 35.1715 19.5006 35.9995V37.4995H18.0006C17.1726 37.4995 16.5006 38.1715 16.5006 38.9994C16.5006 39.8274 17.1726 40.4994 18.0006 40.4994H19.5006V41.9994C19.5006 42.8274 20.1726 43.4994 21.0005 43.4994Z" fill="white"/>
<path id="Vector_2" d="M30.1203 59.9991H7.50068C5.01912 59.9991 3.00075 57.9807 3.00075 55.4991V49.4992H28.5003C29.3283 49.4992 30.0003 48.8272 30.0003 47.9993C30.0003 47.1713 29.3283 46.4993 28.5003 46.4993H3.00075V31.4995H39.0002V34.4995C39.0002 35.3274 39.6722 35.9994 40.5002 35.9994C41.3281 35.9994 42.0001 35.3274 42.0001 34.4995V26.8796C42.0001 23.6548 40.2842 20.6213 37.513 18.9581C36.6106 18.4261 35.849 17.6421 35.3114 16.6917C34.9594 16.0686 34.729 15.3894 34.6059 14.691C36.2938 14.0422 37.5002 12.4142 37.5002 10.4998V4.49993C37.5002 2.01837 35.4818 0 33.0003 0H9.00066C6.5191 0 4.50073 2.01837 4.50073 4.49993V10.4998C4.50073 12.4142 5.70711 14.0414 7.39508 14.6902C7.08389 16.4501 6.0335 18.0301 4.48793 18.9573C3.13435 19.7565 1.99677 20.9221 1.19918 22.3309C0.414392 23.7188 0 25.2916 0 26.8788V55.4983C0 59.6335 3.36475 62.9982 7.49988 62.9982H30.1195C30.9475 62.9982 31.6195 62.3262 31.6195 61.4982C31.6195 60.6703 30.9475 59.9983 30.1195 59.9983L30.1203 59.9991ZM7.50068 4.49993C7.50068 3.67274 8.17347 2.99995 9.00066 2.99995H33.0003C33.8275 2.99995 34.5002 3.67274 34.5002 4.49993V10.4998C34.5002 11.327 33.8275 11.9998 33.0003 11.9998H31.5003V10.4998C31.5003 9.67185 30.8283 8.99986 30.0003 8.99986C29.1723 8.99986 28.5003 9.67185 28.5003 10.4998V11.9998H25.5004V10.4998C25.5004 9.67185 24.8284 8.99986 24.0004 8.99986C23.1724 8.99986 22.5004 9.67185 22.5004 10.4998V11.9998H19.5005V10.4998C19.5005 9.67185 18.8285 8.99986 18.0005 8.99986C17.1725 8.99986 16.5005 9.67185 16.5005 10.4998V11.9998H13.5006V10.4998C13.5006 9.67185 12.8286 8.99986 12.0006 8.99986C11.1726 8.99986 10.5006 9.67185 10.5006 10.4998V11.9998H9.00066C8.17347 11.9998 7.50068 11.327 7.50068 10.4998V4.49993ZM3.00075 26.8796C3.00075 25.8084 3.28155 24.746 3.81114 23.8084C4.34953 22.858 5.11112 22.0733 6.0231 21.5357C8.38626 20.1181 9.97344 17.6901 10.3854 14.9998H31.6155C31.7843 16.1077 32.1435 17.1853 32.7003 18.1685C33.4971 19.5765 34.6346 20.7421 35.9786 21.5357C37.8426 22.654 39.0002 24.702 39.0002 26.8796V28.4996H3.00075V26.8796Z" fill="white"/>
<path id="Vector_3" d="M40.5001 38.999C36.365 38.999 33.0002 42.3638 33.0002 46.4989V55.4988C33.0002 59.6339 36.365 62.9987 40.5001 62.9987C44.6353 62.9987 48 59.6339 48 55.4988V46.4989C48 42.3638 44.6353 38.999 40.5001 38.999ZM36.0002 46.4989C36.0002 44.0173 38.0186 41.999 40.5001 41.999C42.9817 41.999 45.0001 44.0173 45.0001 46.4989V49.4989H36.0002V46.4989ZM45.0001 55.4988C45.0001 57.9803 42.9817 59.9987 40.5001 59.9987C38.0186 59.9987 36.0002 57.9803 36.0002 55.4988V52.4988H45.0001V55.4988Z" fill="white"/>
</g>
</svg>
