<svg width="1113" height="107" viewBox="0 0 1113 107" fill="none" xmlns="http://www.w3.org/2000/svg">
<g opacity="0.5">
<circle cx="826.777" cy="81.7772" r="15.5" transform="rotate(4.10603 826.777 81.7772)" stroke="white" stroke-width="6"/>
<circle cx="1103.09" cy="43.0868" r="7.12162" transform="rotate(4.10603 1103.09 43.0868)" stroke="white" stroke-width="2.75676"/>
<circle cx="9.08683" cy="39.0868" r="7.12162" transform="rotate(4.10603 9.08683 39.0868)" stroke="white" stroke-width="2.75676"/>
<circle cx="105.828" cy="77.8284" r="10.0541" transform="rotate(4.10603 105.828 77.8284)" stroke="white" stroke-width="3.89189"/>
<path d="M1015.43 96.0779C1016.17 98.9192 1017.78 101.047 1019.95 102.265C1022.12 103.48 1024.84 103.796 1027.8 103.022C1030.73 102.256 1032.93 100.652 1034.21 98.5333C1035.49 96.4128 1035.86 93.7709 1035.12 90.9328L1033.36 84.1906C1033.27 83.8646 1033.3 83.5955 1033.42 83.3813C1033.55 83.1603 1033.78 83.0098 1034.09 82.928L1035.52 82.5557L1034.77 79.6896L1031.18 80.6266C1030.39 80.8329 1029.88 81.1396 1029.62 81.5839C1029.36 82.0285 1029.35 82.6292 1029.55 83.4231L1031.7 91.6267C1032.23 93.6588 1032.02 95.4463 1031.21 96.8601C1030.37 98.3042 1028.9 99.3514 1026.93 99.8657C1024.95 100.383 1023.17 100.191 1021.74 99.3506C1020.34 98.5223 1019.29 97.0679 1018.76 95.0468L1016.61 86.8061C1016.4 86.013 1016.08 85.4993 1015.63 85.2401C1015.18 84.9806 1014.57 84.9662 1013.78 85.1728L1010.23 86.1001L1010.98 88.9662L1012.41 88.5939C1012.72 88.512 1012.99 88.5319 1013.21 88.6617C1013.43 88.7876 1013.58 89.0097 1013.67 89.3357L1015.43 96.0779Z" fill="white" stroke="#00CCCB" stroke-width="0.542986" stroke-miterlimit="22.9256"/>
<path d="M918.847 28.9317C917.183 32.8237 917.122 36.6642 918.481 39.9542C919.834 43.2324 922.601 45.9725 926.6 47.6827C930.554 49.3734 934.426 49.4687 937.722 48.1727C941.021 46.8757 943.751 44.1806 945.413 40.293L949.363 31.0573C949.554 30.6107 949.819 30.3262 950.147 30.1909C950.485 30.0512 950.873 30.0789 951.295 30.2595L953.217 31.0817L954.896 27.1557L950.058 25.0866C948.993 24.6311 948.149 24.5317 947.469 24.8123C946.789 25.0934 946.245 25.7661 945.78 26.8537L940.974 38.0912C939.784 40.8748 937.983 42.7344 935.826 43.6327C933.623 44.5503 931.06 44.4604 928.404 43.3248C925.732 42.1818 923.899 40.3981 923.042 38.1916C922.195 36.0164 922.301 33.4404 923.485 30.6718L928.312 19.3834C928.777 18.2969 928.875 17.4349 928.598 16.7444C928.319 16.0519 927.651 15.5038 926.584 15.0476L921.796 13L920.117 16.926L922.04 17.7481C922.462 17.9288 922.749 18.1896 922.882 18.5307C923.011 18.861 922.988 19.2494 922.797 19.6959L918.847 28.9317Z" fill="white" stroke="#00CCCB" stroke-width="0.542986" stroke-miterlimit="22.9256"/>
<path d="M195.969 25.5095C197.192 29.5619 199.612 32.5455 202.766 34.1949C205.909 35.8387 209.789 36.1626 213.953 34.9058C218.069 33.6634 221.099 31.25 222.794 28.1398C224.49 25.0271 224.852 21.2083 223.63 17.1604L220.728 7.54406C220.587 7.07915 220.608 6.69069 220.772 6.37644C220.942 6.05233 221.257 5.82483 221.696 5.69212L223.698 5.08789L222.464 1.00007L217.427 2.52055C216.318 2.85531 215.607 3.32124 215.266 3.97304C214.925 4.62509 214.94 5.49014 215.282 6.62252L218.813 18.3232C219.688 21.2215 219.502 23.8033 218.425 25.8769C217.326 27.9947 215.303 29.5721 212.538 30.4066C209.755 31.2466 207.205 31.0557 205.131 29.9149C203.085 28.7908 201.512 26.7485 200.642 23.8657L197.094 12.1122C196.753 10.9809 196.274 10.257 195.618 9.90578C194.96 9.55413 194.096 9.56265 192.985 9.89786L188 11.4026L189.234 15.4904L191.235 14.8863C191.675 14.7535 192.063 14.769 192.384 14.9451C192.694 15.1161 192.926 15.4282 193.067 15.8931L195.969 25.5095Z" fill="white" stroke="#00CCCB" stroke-width="0.542986" stroke-miterlimit="22.9256"/>
</g>
</svg>
