<svg width="554" height="151" viewBox="0 0 554 151" fill="none" xmlns="http://www.w3.org/2000/svg">
<circle cx="18.5" cy="132.5" r="15.5" stroke="#00CCCB" stroke-width="6"/>
<circle cx="387.5" cy="29.5" r="7.12162" stroke="#00CCCB" stroke-width="2.75676"/>
<circle cx="257" cy="69" r="10.0541" stroke="#00CCCB" stroke-width="3.89189"/>
<path d="M109.76 14.5473C110.101 17.4641 111.404 19.7949 113.384 21.303C115.357 22.8058 118.006 23.4958 121.049 23.1399C124.057 22.7881 126.458 21.5049 128.021 19.5844C129.586 17.6624 130.314 15.0967 129.974 12.1833L129.164 5.26181C129.125 4.92719 129.188 4.66425 129.341 4.46937C129.499 4.26838 129.745 4.15093 130.067 4.11335L131.53 3.94226L131.186 1.00002L127.504 1.43056C126.694 1.52535 126.143 1.75785 125.825 2.16201C125.507 2.56641 125.409 3.1593 125.505 3.97434L126.49 12.396C126.734 14.4821 126.282 16.2237 125.277 17.5105C124.25 18.8249 122.651 19.6584 120.63 19.8947C118.596 20.1325 116.853 19.6941 115.558 18.6641C114.281 17.6489 113.446 16.0633 113.203 13.9885L112.214 5.52876C112.119 4.71455 111.878 4.16211 111.467 3.8429C111.054 3.52306 110.455 3.42457 109.643 3.51948L106 3.94556L106.344 6.88779L107.807 6.71673C108.128 6.67912 108.395 6.73656 108.595 6.89564C108.789 7.04994 108.911 7.29127 108.95 7.62589L109.76 14.5473Z" fill="#00CCCB" stroke="#00CCCB" stroke-width="0.542986" stroke-miterlimit="22.9256"/>
<path d="M516.99 97.1019C515.609 101.103 515.823 104.938 517.414 108.122C518.999 111.295 521.955 113.83 526.066 115.25C530.13 116.653 533.999 116.471 537.194 114.942C540.392 113.412 542.922 110.529 544.302 106.532L547.58 97.037C547.739 96.578 547.983 96.2752 548.3 96.1167C548.627 95.9533 549.016 95.9531 549.45 96.103L551.426 96.7854L552.82 92.7493L547.846 91.0319C546.751 90.6538 545.902 90.6152 545.243 90.9438C544.585 91.2728 544.091 91.9828 543.705 93.1008L539.716 104.654C538.728 107.515 537.065 109.499 534.978 110.549C532.847 111.622 530.283 111.716 527.553 110.774C524.806 109.825 522.85 108.177 521.837 106.038C520.837 103.929 520.758 101.352 521.74 98.5055L525.747 86.9005C526.133 85.7835 526.169 84.9167 525.843 84.2478C525.515 83.577 524.81 83.0781 523.713 82.6995L518.791 81L517.397 85.0362L519.374 85.7185C519.808 85.8685 520.113 86.1081 520.27 86.4387C520.422 86.7591 520.427 87.148 520.269 87.6071L516.99 97.1019Z" fill="#00CCCB" stroke="#00CCCB" stroke-width="0.542986" stroke-miterlimit="22.9256"/>
</svg>
