<svg width="66" height="62" viewBox="0 0 66 62" fill="none" xmlns="http://www.w3.org/2000/svg">
<g id="Group 24">
<path id="Vector 11" d="M5.42068 13.0181L26.7428 3.7105C30.8577 1.91423 35.5453 1.96865 39.6175 3.85998L59.5973 13.1397C62.2824 14.3868 64 17.0785 64 20.039V20.039C64 23.1302 62.1295 25.914 59.2675 27.0821L40.3176 34.8167C35.7678 36.6737 30.6679 36.6539 26.1327 34.7615L11.4069 28.6169V44.866C11.4069 47.4066 12.7835 49.7478 15.0037 50.983L23.2895 55.5929C29.4819 59.0381 36.9942 59.1279 43.2672 55.8318L52.5594 50.9492C54.8616 49.7395 56.3034 47.3532 56.3034 44.7526V28.6169" stroke="white" stroke-width="3.5" stroke-linecap="round" stroke-linejoin="round"/>
<path id="Vector 12" d="M15.6828 16.9175L5.4256 21.7898C3.33332 22.7836 2 24.8931 2 27.2094V40.3156" stroke="white" stroke-width="3.5" stroke-linecap="round" stroke-linejoin="round"/>
</g>
</svg>
