<svg width="65" height="70" viewBox="0 0 65 70" fill="none" xmlns="http://www.w3.org/2000/svg">
<path id="Vector" d="M60.3138 46.8389L60.3139 46.8389C62.0461 47.3311 63.3004 48.459 63.8254 50.0217C64.3391 51.5444 64.1046 53.2732 63.3513 54.7705C62.5978 56.268 61.3206 57.5432 59.7349 58.1558L59.7306 58.1447C59.7349 58.1559 59.7348 58.1559 59.7348 58.1559L59.7341 58.1561L59.7316 58.1571L59.7215 58.161L59.6818 58.1764L59.5268 58.2364L58.9383 58.4642L56.8361 59.278L50.4436 61.7527C45.7851 63.5563 41.1025 65.3693 41.003 65.4085L41.0027 65.4086L40.9946 65.4118C39.5108 65.9914 37.8368 66.6452 36.1221 67.0338C34.4041 67.4231 32.6368 67.5483 30.9706 67.0613L21.3008 64.2421L60.3138 46.8389ZM60.3138 46.8389C58.5173 46.3316 56.216 46.4901 53.4761 47.2959L53.4761 47.296M60.3138 46.8389L53.4761 47.296M53.4761 47.296L41.7396 50.7541C40.9969 49.4808 39.814 48.5677 38.3986 48.1852L38.3985 48.1852M53.4761 47.296L38.3985 48.1852M38.3985 48.1852L29.874 45.8942C26.7237 43.6912 24.2444 42.8812 21.9089 42.9429C19.574 43.0046 17.3975 43.9377 14.8589 45.1837L14.903 45.2735M38.3985 48.1852L14.903 45.2735M14.903 45.2735L14.8589 45.1837C11.5567 46.8056 8.16817 48.4118 4.89264 49.9592C4.26056 50.2569 3.62962 50.5561 2.99939 50.855C2.57095 51.0581 2.14284 51.2612 1.71492 51.4634L1.71477 51.4635C1.02791 51.7896 0.716195 52.6023 1.01106 53.3052C1.01108 53.3053 1.0111 53.3053 1.01111 53.3054L7.19375 68.2203L7.19382 68.2204C7.34551 68.5846 7.64041 68.8682 8.00671 69.0078M14.903 45.2735L21.3007 64.242C20.2392 63.934 19.2422 64.0185 18.2499 64.5036L18.2498 64.5036L9.13235 68.957L9.13205 68.9571C8.78274 69.1263 8.37013 69.1478 8.00671 69.0078M8.00671 69.0078C8.00659 69.0078 8.00647 69.0077 8.00634 69.0077L8.04233 68.9144L8.00671 69.0078ZM31.7632 64.3178L31.7633 64.3178C32.9507 64.6648 34.3475 64.5298 35.7812 64.1759C37.2097 63.8234 38.6618 63.2572 39.9629 62.7499L39.9736 62.7457L39.974 62.7456L40.0103 62.8388L31.7632 64.3178ZM31.7632 64.3178L22.0972 61.4985L22.0971 61.4985M31.7632 64.3178L22.0971 61.4985M22.0971 61.4985C20.3532 60.9915 18.6388 61.1394 17.0062 61.9378L9.24201 65.7263L4.15884 53.4655C4.80422 53.1568 5.45311 52.8515 6.10233 52.546L6.10252 52.5459M22.0971 61.4985L6.10252 52.5459M6.10252 52.5459L6.21431 52.493C9.46666 50.9543 12.825 49.3653 16.1107 47.7494C18.4215 46.6159 20.17 45.8307 22.0055 45.7948C23.8357 45.759 25.7683 46.4689 28.4398 48.3703C28.5761 48.4729 28.7327 48.5448 28.8964 48.5871C28.8966 48.5872 28.8968 48.5872 28.8971 48.5873L37.6609 50.9456C38.3519 51.1315 38.9296 51.5791 39.2888 52.206L39.2889 52.2062M6.10252 52.5459L39.2889 52.2062M39.2889 52.2062C39.6521 52.8373 39.75 53.5622 39.565 54.2568C39.3799 54.9516 38.9344 55.5321 38.307 55.8929L38.3064 55.8933M39.2889 52.2062L38.3064 55.8933M38.3064 55.8933C37.6831 56.2577 36.9583 56.3526 36.2671 56.1665L24.6185 53.0323L24.6184 53.0323M38.3064 55.8933L24.6184 53.0323M24.6184 53.0323C23.8592 52.8288 23.0801 53.2825 22.8739 54.0438L22.8737 54.0443M24.6184 53.0323L22.8737 54.0443M22.8737 54.0443C22.6716 54.8059 23.122 55.5893 23.8809 55.7927L35.5293 58.9269C36.9541 59.312 38.4468 59.1112 39.7312 58.3697L39.7315 58.3695M22.8737 54.0443L39.7315 58.3695M39.7315 58.3695C41.012 57.6239 41.9298 56.4248 42.3128 54.9975L42.3129 54.997M39.7315 58.3695L42.3129 54.997M42.3129 54.997C42.4418 54.5057 42.5059 54.0031 42.5015 53.5065L54.277 50.0393L54.2771 50.0393M42.3129 54.997L54.2771 50.0393M54.2771 50.0393C56.1647 49.4822 57.7488 49.2971 58.9275 49.4602M54.2771 50.0393L58.9275 49.4602M31.0319 12.2128L31.0319 12.2123C31.015 11.425 31.6343 10.7729 32.4221 10.7517L32.4227 10.7517C33.2065 10.7348 33.8595 11.3571 33.8765 12.1447L33.8765 12.145M31.0319 12.2128L33.8765 12.145M31.0319 12.2128L31.0533 13.0156C28.9071 13.5964 27.3253 15.437 27.3253 17.6203C27.3253 20.2696 29.654 22.4138 32.4993 22.4138C33.8013 22.4138 34.8285 23.2983 34.8285 24.3495C34.8285 25.4007 33.8013 26.2852 32.4993 26.2852C32.046 26.2852 31.7197 26.2191 31.4028 26.0587C31.0822 25.8965 30.7651 25.6347 30.3347 25.2298M31.0319 12.2128L30.3347 25.2298M33.8765 12.145L33.8983 13.051M33.8765 12.145L33.8983 13.051M33.8983 13.051C35.0655 13.3805 36.3921 14.0662 37.0182 15.0258C37.4479 15.682 37.2671 16.5709 36.6094 17.003C35.9522 17.4348 35.0712 17.2529 34.6412 16.5924C34.5934 16.5201 34.4836 16.4244 34.321 16.3191C34.1616 16.2158 33.9618 16.11 33.7464 16.0147C33.3122 15.8226 32.8309 15.6806 32.4993 15.6806C31.1974 15.6806 30.17 16.5651 30.17 17.6203C30.17 18.6714 31.1972 19.556 32.4993 19.556C35.3446 19.556 37.6732 21.7001 37.6732 24.3495C37.6732 26.5288 36.0953 28.3695 33.9491 28.9503L33.9667 29.6311L33.9667 29.6315C33.9835 30.4185 33.3644 31.0709 32.5803 31.0921L32.5776 31.0921V31.0921H32.5776H32.5775H32.5774H32.5773H32.5773H32.5772H32.5771H32.5771H32.577H32.5769H32.5769H32.5768H32.5767H32.5767H32.5766H32.5765H32.5765H32.5764H32.5763H32.5762H32.5762H32.5761H32.576H32.576H32.5759H32.5758H32.5758H32.5757H32.5756H32.5756H32.5755H32.5754H32.5753H32.5753H32.5752H32.5751H32.5751H32.575H32.5749H32.5749H32.5748H32.5747H32.5747H32.5746H32.5745H32.5745H32.5744H32.5743H32.5742H32.5742H32.5741H32.574H32.574H32.5739H32.5738H32.5738H32.5737H32.5736H32.5736H32.5735H32.5734H32.5734H32.5733H32.5732H32.5731H32.5731H32.573H32.5729H32.5729H32.5728H32.5727H32.5727H32.5726H32.5725H32.5725H32.5724H32.5723H32.5722H32.5722H32.5721H32.572H32.572H32.5719H32.5718H32.5718H32.5717H32.5716H32.5716H32.5715H32.5714H32.5714H32.5713H32.5712H32.5711H32.5711H32.571H32.5709H32.5709H32.5708H32.5707H32.5707H32.5706H32.5705H32.5705H32.5704H32.5703H32.5703H32.5702H32.5701H32.57H32.57H32.5699H32.5698H32.5698H32.5697H32.5696H32.5696H32.5695H32.5694H32.5694H32.5693H32.5692H32.5691H32.5691H32.569H32.5689H32.5689H32.5688H32.5687H32.5687H32.5686H32.5685H32.5685H32.5684H32.5683H32.5683H32.5682H32.5681H32.568H32.568H32.5679H32.5678H32.5678H32.5677H32.5676H32.5676H32.5675H32.5674H32.5674H32.5673H32.5672H32.5672H32.5671H32.567H32.5669H32.5669H32.5668H32.5667H32.5667H32.5666H32.5665H32.5665H32.5664H32.5663H32.5663H32.5662H32.5661H32.5661H32.566H32.5659H32.5658H32.5658H32.5657H32.5656H32.5656H32.5655H32.5654H32.5654H32.5653H32.5652H32.5652H32.5651H32.565H32.5649H32.5649H32.5648H32.5647H32.5647H32.5646H32.5645H32.5645H32.5644H32.5643H32.5643H32.5642H32.5641H32.5641H32.564H32.5639H32.5638H32.5638H32.5637H32.5636H32.5636H32.5635H32.5634H32.5634H32.5633H32.5632H32.5632H32.5631H32.563H32.563H32.5629H32.5628H32.5627H32.5627H32.5626H32.5625H32.5625H32.5624H32.5623H32.5623H32.5622H32.5621H32.5621H32.562H32.5619H32.5618H32.5618H32.5617H32.5616H32.5616H32.5615H32.5614H32.5614H32.5613H32.5612H32.5612H32.5611H32.561H32.561H32.5609H32.5608H32.5607H32.5607H32.5606H32.5605H32.5605H32.5604H32.5603H32.5603H32.5602H32.5601H32.5601H32.56H32.5599H32.5599H32.5598H32.5597H32.5596H32.5596H32.5595H32.5594H32.5594H32.5593H32.5592H32.5592H32.5591H32.559H32.559H32.5589H32.5588H32.5588H32.5587H32.5586H32.5585H32.5585H32.5584H32.5583H32.5583H32.5582H32.5581H32.5581H32.558H32.5579H32.5579H32.5578H32.5577H32.5576H32.5576H32.5575H32.5574H32.5574H32.5573H32.5572H32.5572H32.5571H32.557H32.557H32.5569H32.5568H32.5568H32.5567H32.5566H32.5565H32.5565H32.5564H32.5563H32.5563H32.5562H32.5561H32.5561H32.556H32.5559H32.5559H32.5558H32.5557H32.5557H32.5556H32.5555H32.5554H32.5554H32.5553H32.5552H32.5552H32.5551H32.555H32.555H32.5549H32.5548H32.5548H32.5547H32.5546H32.5545H32.5545H32.5544H32.5543H32.5543H32.5542H32.5541H32.5541H32.554H32.5539H32.5539H32.5538H32.5537H32.5537H32.5536H32.5535H32.5534H32.5534H32.5533H32.5532H32.5532H32.5531H32.553H32.553H32.5529H32.5528H32.5528H32.5527H32.5526H32.5526H32.5525H32.5524H32.5523H32.5523H32.5522H32.5521H32.5521H32.552H32.5519H32.5519H32.5518H32.5517H32.5517H32.5516H32.5515H32.5515H32.5514H32.5513H32.5512H32.5512H32.5511H32.551H32.551H32.5509H32.5508H32.5508H32.5507H32.5506H32.5506H32.5505H32.5504H32.5503H32.5503H32.5502H32.5501H32.5501H32.55H32.5499H32.5499H32.5498H32.5497H32.5497H32.5496H32.5495H32.5495H32.5494H32.5493H32.5492H32.5492H32.5491H32.549H32.549H32.5489H32.5488H32.5488H32.5487H32.5486H32.5486H32.5485H32.5484H32.5484H32.5483H32.5482H32.5481H32.5481H32.548H32.5479H32.5479H32.5478H32.5477H32.5477H32.5476H32.5475H32.5475H32.5474H32.5473H32.5472H32.5472H32.5471H32.547H32.547H32.5469H32.5468H32.5468H32.5467H32.5466H32.5466H32.5465H32.5464H32.5464H32.5463H32.5462H32.5461H32.5461H32.546H32.5459H32.5459H32.5458H32.5457H32.5457H32.5456H32.5455H32.5455H32.5454H32.5453H32.5453H32.5452H32.5451H32.545H32.545H32.5449H32.5448H32.5448H32.5447H32.5446H32.5446H32.5445H32.5444H32.5444H32.5443H32.5442H32.5441H32.5441H32.544H32.5439H32.5439H32.5438H32.5437H32.5437H32.5436H32.5435H32.5435H32.5434H32.5433H32.5433H32.5432H32.5431H32.543H32.543H32.5429H32.5428H32.5428H32.5427H32.5426H32.5426H32.5425H32.5424H32.5424C31.775 31.0921 31.139 30.4739 31.122 29.6991L31.122 29.6988M33.8983 13.051L31.122 29.6988M31.122 29.6988L31.1043 28.9802M31.122 29.6988L31.1043 28.9802M31.1043 28.9802C29.9239 28.6806 29.1302 28.0126 28.383 27.3043C27.8143 26.7666 27.7847 25.8608 28.3242 25.2889M31.1043 28.9802L28.3242 25.2889M28.3242 25.2889C28.8636 24.7132 29.7656 24.6877 30.3347 25.2298M28.3242 25.2889L30.3347 25.2298M58.9275 49.4602C60.1053 49.6232 60.859 50.1293 61.1322 50.94L58.9275 49.4602ZM32.4993 36.3644C40.9788 36.3644 47.8799 29.4365 47.8799 20.9239C47.8799 12.4073 40.9788 5.47934 32.4993 5.47934C24.0197 5.47934 17.1186 12.4073 17.1186 20.9239C17.1186 29.4365 24.0197 36.3644 32.4993 36.3644ZM32.4993 8.33323C39.4101 8.33323 45.0352 13.9817 45.0352 20.9239C45.0352 27.8621 39.4101 33.5106 32.4993 33.5106C25.5885 33.5106 19.9672 27.8621 19.9672 20.9239C19.9672 13.9817 25.5885 8.33323 32.4993 8.33323ZM32.4993 40.9438C43.4943 40.9438 52.4367 31.9604 52.4367 20.9239C52.4367 9.88336 43.4943 0.9 32.4993 0.9C21.5042 0.9 12.5618 9.88336 12.5618 20.9239C12.5618 31.9604 21.5042 40.9438 32.4993 40.9438ZM32.4993 3.75783C41.9255 3.75783 49.592 11.4578 49.592 20.9239C49.592 30.386 41.9255 38.086 32.4993 38.086C23.073 38.086 15.4065 30.386 15.4065 20.9239C15.4065 11.4578 23.073 3.75783 32.4993 3.75783Z" fill="white" stroke="white" stroke-width="0.2"/>
</svg>
