<svg width="65" height="65" viewBox="0 0 65 65" fill="none" xmlns="http://www.w3.org/2000/svg">
<g id="Vector">
<mask id="path-1-outside-1_12_555" maskUnits="userSpaceOnUse" x="0" y="0" width="65" height="65" fill="black">
<rect fill="white" width="65" height="65"/>
<path d="M32.7978 1C31.0546 1 29.6222 2.43437 29.6222 4.17763V8.45054C28.4839 9.3134 27.6892 10.6096 27.5313 12.1002C25.0193 12.5909 23.0147 13.3625 21.0517 14.0669C19.0943 14.7693 17.1175 15.384 14.5286 15.6671C14.0438 14.5285 12.9111 13.7232 11.6034 13.7232C10.3638 13.7232 9.28773 14.4541 8.76315 15.4995C6.35685 14.9426 4.76772 13.8971 4.76772 13.8971C4.59162 13.7761 4.38308 13.7113 4.16944 13.7109C3.11205 13.709 2.70401 15.0867 3.59186 15.661C3.59186 15.661 5.57697 16.9712 8.50645 17.609C8.66455 18.2858 9.04549 18.874 9.56223 19.3106L1.06832 41.9646C1.02335 42.0836 1.00022 42.2097 1 42.3371C1 42.3371 0.988626 44.7134 2.32905 47.0965C3.6695 49.4795 6.51555 51.8765 11.5993 51.8765C16.683 51.8765 19.5291 49.4795 20.8695 47.0965C22.21 44.7134 22.1986 42.3371 22.1986 42.3371C22.1984 42.2097 22.1752 42.0836 22.1303 41.9646L13.6363 19.3127C14.1066 18.9153 14.4573 18.3903 14.6362 17.787C17.5122 17.4841 19.7388 16.7908 21.768 16.0626C23.7228 15.3611 25.5411 14.668 27.7632 14.2159C28.4353 16.3706 30.4288 17.9547 32.7978 17.9547C35.167 17.9547 37.1625 16.3707 37.8346 14.2159C40.0559 14.6681 41.8729 15.3612 43.8277 16.0626C45.8571 16.7908 48.0849 17.4844 50.9615 17.787C51.1404 18.39 51.4894 18.9154 51.9594 19.3127L43.4654 41.9646C43.4205 42.0836 43.3973 42.2097 43.3971 42.3371C43.3971 42.3371 43.3859 44.7134 44.7262 47.0965C46.0666 49.4795 48.9127 51.8765 53.9964 51.8765C59.0802 51.8765 61.9262 49.4795 63.2667 47.0965C64.6071 44.7134 64.5957 42.3371 64.5957 42.3371C64.5955 42.2097 64.5725 42.0836 64.5274 41.9646L56.0335 19.3127C56.5514 18.8759 56.933 18.2868 57.0913 17.609C60.0197 16.971 62.0039 15.661 62.0039 15.661C62.9067 15.0782 62.4693 13.6767 61.3952 13.7109C61.1922 13.7189 60.9953 13.7821 60.828 13.8971C60.828 13.8971 59.2399 14.9425 56.8346 15.4995C56.3102 14.4538 55.2342 13.7232 53.9944 13.7232C52.6867 13.7232 51.554 14.5285 51.0692 15.6671C48.4795 15.3843 46.5015 14.7693 44.544 14.0669C42.5816 13.3627 40.5772 12.5911 38.0665 12.1002C37.9086 10.6096 37.1139 9.3134 35.9756 8.45054V4.17763C35.9756 2.43437 34.5411 1 32.7978 1ZM32.7978 3.12185C33.4034 3.12185 33.8536 3.57212 33.8536 4.17763V7.46725C33.5121 7.39755 33.1592 7.36138 32.7978 7.36138C32.4336 7.36138 32.0778 7.3975 31.7338 7.46921V4.17763C31.7338 3.57208 32.1923 3.12185 32.7978 3.12185ZM32.7978 9.48151C34.5666 9.48151 35.9756 10.8904 35.9756 12.6591C35.9756 14.4278 34.5666 15.8348 32.7978 15.8348C31.0291 15.8348 29.6222 14.4278 29.6222 12.6591C29.6222 10.8904 31.0291 9.48151 32.7978 9.48151ZM11.6034 15.8348C12.2014 15.8348 12.6592 16.301 12.6592 16.8989C12.6592 17.4969 12.2014 17.9547 11.6034 17.9547C11.0055 17.9547 10.5373 17.4969 10.5373 16.8989C10.5373 16.301 11.0055 15.8348 11.6034 15.8348ZM53.9943 15.8348C54.5923 15.8348 55.0584 16.301 55.0584 16.8989C55.0584 17.4969 54.5923 17.9547 53.9943 17.9547C53.3964 17.9547 52.9386 17.4969 52.9386 16.8989C52.9386 16.301 53.3964 15.8348 53.9943 15.8348ZM30.6614 20.0601C30.076 20.0721 29.6107 20.5553 29.6222 21.1407V53.9943H22.1965C20.4532 53.9943 19.0209 55.435 19.0209 57.1783V58.2341C17.2776 58.2341 15.8349 59.6768 15.8349 61.42V63.5316C15.8326 64.1202 16.3103 64.5979 16.8989 64.5957H48.6968C49.2821 64.5933 49.7548 64.117 49.7526 63.5316V61.42C49.7526 59.6768 48.3202 58.2341 46.5769 58.2341V57.1783C46.5769 55.435 45.1445 53.9943 43.4013 53.9943H35.9756V21.1407C35.9872 20.5423 35.5016 20.053 34.9032 20.0601C34.3137 20.0641 33.8422 20.5512 33.8536 21.1407V53.9943H31.7338V21.1407C31.7454 20.5423 31.2598 20.053 30.6614 20.0601ZM11.5434 20.072C11.5638 20.0724 11.5829 20.0801 11.6034 20.0801C11.6219 20.0801 11.6388 20.076 11.6572 20.072L19.6109 41.2809H3.58772L11.5434 20.072ZM53.9405 20.072C53.9589 20.0724 53.9758 20.0801 53.9943 20.0801C54.014 20.0801 54.0324 20.076 54.0523 20.072L62.008 41.2809H45.9848L53.9405 20.072ZM3.24407 43.4029H19.9545C19.8409 44.0823 19.6016 45.0302 19.0229 46.0589C17.9785 47.9156 16.0549 49.7583 11.5993 49.7583C7.14366 49.7583 5.22004 47.9156 4.17565 46.0589C3.59699 45.0302 3.35764 44.0823 3.24407 43.4029ZM45.6412 43.4029H62.3516C62.2381 44.0823 61.9987 45.0302 61.4201 46.0589C60.3757 47.9156 58.452 49.7583 53.9964 49.7583C49.5408 49.7583 47.6172 47.9156 46.5728 46.0589C45.9941 45.0302 45.7548 44.0823 45.6412 43.4029ZM22.1965 56.1158C29.3363 56.161 36.2372 56.1158 43.4013 56.1158C44.0068 56.1158 44.4571 56.5744 44.4571 57.1799V58.2357H39.1595C37.7449 58.2357 37.7449 60.3576 39.1595 60.3576H46.5769C47.1824 60.3576 47.6327 60.8161 47.6327 61.4216V62.4774H17.9547V61.4216C17.9547 60.8161 18.4153 60.3576 19.0209 60.3576H34.9198C36.3344 60.3576 36.3344 58.2357 34.9198 58.2357H21.1407V57.1799C21.1407 56.5744 21.591 56.1158 22.1965 56.1158Z"/>
</mask>
<path d="M32.7978 1C31.0546 1 29.6222 2.43437 29.6222 4.17763V8.45054C28.4839 9.3134 27.6892 10.6096 27.5313 12.1002C25.0193 12.5909 23.0147 13.3625 21.0517 14.0669C19.0943 14.7693 17.1175 15.384 14.5286 15.6671C14.0438 14.5285 12.9111 13.7232 11.6034 13.7232C10.3638 13.7232 9.28773 14.4541 8.76315 15.4995C6.35685 14.9426 4.76772 13.8971 4.76772 13.8971C4.59162 13.7761 4.38308 13.7113 4.16944 13.7109C3.11205 13.709 2.70401 15.0867 3.59186 15.661C3.59186 15.661 5.57697 16.9712 8.50645 17.609C8.66455 18.2858 9.04549 18.874 9.56223 19.3106L1.06832 41.9646C1.02335 42.0836 1.00022 42.2097 1 42.3371C1 42.3371 0.988626 44.7134 2.32905 47.0965C3.6695 49.4795 6.51555 51.8765 11.5993 51.8765C16.683 51.8765 19.5291 49.4795 20.8695 47.0965C22.21 44.7134 22.1986 42.3371 22.1986 42.3371C22.1984 42.2097 22.1752 42.0836 22.1303 41.9646L13.6363 19.3127C14.1066 18.9153 14.4573 18.3903 14.6362 17.787C17.5122 17.4841 19.7388 16.7908 21.768 16.0626C23.7228 15.3611 25.5411 14.668 27.7632 14.2159C28.4353 16.3706 30.4288 17.9547 32.7978 17.9547C35.167 17.9547 37.1625 16.3707 37.8346 14.2159C40.0559 14.6681 41.8729 15.3612 43.8277 16.0626C45.8571 16.7908 48.0849 17.4844 50.9615 17.787C51.1404 18.39 51.4894 18.9154 51.9594 19.3127L43.4654 41.9646C43.4205 42.0836 43.3973 42.2097 43.3971 42.3371C43.3971 42.3371 43.3859 44.7134 44.7262 47.0965C46.0666 49.4795 48.9127 51.8765 53.9964 51.8765C59.0802 51.8765 61.9262 49.4795 63.2667 47.0965C64.6071 44.7134 64.5957 42.3371 64.5957 42.3371C64.5955 42.2097 64.5725 42.0836 64.5274 41.9646L56.0335 19.3127C56.5514 18.8759 56.933 18.2868 57.0913 17.609C60.0197 16.971 62.0039 15.661 62.0039 15.661C62.9067 15.0782 62.4693 13.6767 61.3952 13.7109C61.1922 13.7189 60.9953 13.7821 60.828 13.8971C60.828 13.8971 59.2399 14.9425 56.8346 15.4995C56.3102 14.4538 55.2342 13.7232 53.9944 13.7232C52.6867 13.7232 51.554 14.5285 51.0692 15.6671C48.4795 15.3843 46.5015 14.7693 44.544 14.0669C42.5816 13.3627 40.5772 12.5911 38.0665 12.1002C37.9086 10.6096 37.1139 9.3134 35.9756 8.45054V4.17763C35.9756 2.43437 34.5411 1 32.7978 1ZM32.7978 3.12185C33.4034 3.12185 33.8536 3.57212 33.8536 4.17763V7.46725C33.5121 7.39755 33.1592 7.36138 32.7978 7.36138C32.4336 7.36138 32.0778 7.3975 31.7338 7.46921V4.17763C31.7338 3.57208 32.1923 3.12185 32.7978 3.12185ZM32.7978 9.48151C34.5666 9.48151 35.9756 10.8904 35.9756 12.6591C35.9756 14.4278 34.5666 15.8348 32.7978 15.8348C31.0291 15.8348 29.6222 14.4278 29.6222 12.6591C29.6222 10.8904 31.0291 9.48151 32.7978 9.48151ZM11.6034 15.8348C12.2014 15.8348 12.6592 16.301 12.6592 16.8989C12.6592 17.4969 12.2014 17.9547 11.6034 17.9547C11.0055 17.9547 10.5373 17.4969 10.5373 16.8989C10.5373 16.301 11.0055 15.8348 11.6034 15.8348ZM53.9943 15.8348C54.5923 15.8348 55.0584 16.301 55.0584 16.8989C55.0584 17.4969 54.5923 17.9547 53.9943 17.9547C53.3964 17.9547 52.9386 17.4969 52.9386 16.8989C52.9386 16.301 53.3964 15.8348 53.9943 15.8348ZM30.6614 20.0601C30.076 20.0721 29.6107 20.5553 29.6222 21.1407V53.9943H22.1965C20.4532 53.9943 19.0209 55.435 19.0209 57.1783V58.2341C17.2776 58.2341 15.8349 59.6768 15.8349 61.42V63.5316C15.8326 64.1202 16.3103 64.5979 16.8989 64.5957H48.6968C49.2821 64.5933 49.7548 64.117 49.7526 63.5316V61.42C49.7526 59.6768 48.3202 58.2341 46.5769 58.2341V57.1783C46.5769 55.435 45.1445 53.9943 43.4013 53.9943H35.9756V21.1407C35.9872 20.5423 35.5016 20.053 34.9032 20.0601C34.3137 20.0641 33.8422 20.5512 33.8536 21.1407V53.9943H31.7338V21.1407C31.7454 20.5423 31.2598 20.053 30.6614 20.0601ZM11.5434 20.072C11.5638 20.0724 11.5829 20.0801 11.6034 20.0801C11.6219 20.0801 11.6388 20.076 11.6572 20.072L19.6109 41.2809H3.58772L11.5434 20.072ZM53.9405 20.072C53.9589 20.0724 53.9758 20.0801 53.9943 20.0801C54.014 20.0801 54.0324 20.076 54.0523 20.072L62.008 41.2809H45.9848L53.9405 20.072ZM3.24407 43.4029H19.9545C19.8409 44.0823 19.6016 45.0302 19.0229 46.0589C17.9785 47.9156 16.0549 49.7583 11.5993 49.7583C7.14366 49.7583 5.22004 47.9156 4.17565 46.0589C3.59699 45.0302 3.35764 44.0823 3.24407 43.4029ZM45.6412 43.4029H62.3516C62.2381 44.0823 61.9987 45.0302 61.4201 46.0589C60.3757 47.9156 58.452 49.7583 53.9964 49.7583C49.5408 49.7583 47.6172 47.9156 46.5728 46.0589C45.9941 45.0302 45.7548 44.0823 45.6412 43.4029ZM22.1965 56.1158C29.3363 56.161 36.2372 56.1158 43.4013 56.1158C44.0068 56.1158 44.4571 56.5744 44.4571 57.1799V58.2357H39.1595C37.7449 58.2357 37.7449 60.3576 39.1595 60.3576H46.5769C47.1824 60.3576 47.6327 60.8161 47.6327 61.4216V62.4774H17.9547V61.4216C17.9547 60.8161 18.4153 60.3576 19.0209 60.3576H34.9198C36.3344 60.3576 36.3344 58.2357 34.9198 58.2357H21.1407V57.1799C21.1407 56.5744 21.591 56.1158 22.1965 56.1158Z" fill="white"/>
<path d="M32.7978 1C31.0546 1 29.6222 2.43437 29.6222 4.17763V8.45054C28.4839 9.3134 27.6892 10.6096 27.5313 12.1002C25.0193 12.5909 23.0147 13.3625 21.0517 14.0669C19.0943 14.7693 17.1175 15.384 14.5286 15.6671C14.0438 14.5285 12.9111 13.7232 11.6034 13.7232C10.3638 13.7232 9.28773 14.4541 8.76315 15.4995C6.35685 14.9426 4.76772 13.8971 4.76772 13.8971C4.59162 13.7761 4.38308 13.7113 4.16944 13.7109C3.11205 13.709 2.70401 15.0867 3.59186 15.661C3.59186 15.661 5.57697 16.9712 8.50645 17.609C8.66455 18.2858 9.04549 18.874 9.56223 19.3106L1.06832 41.9646C1.02335 42.0836 1.00022 42.2097 1 42.3371C1 42.3371 0.988626 44.7134 2.32905 47.0965C3.6695 49.4795 6.51555 51.8765 11.5993 51.8765C16.683 51.8765 19.5291 49.4795 20.8695 47.0965C22.21 44.7134 22.1986 42.3371 22.1986 42.3371C22.1984 42.2097 22.1752 42.0836 22.1303 41.9646L13.6363 19.3127C14.1066 18.9153 14.4573 18.3903 14.6362 17.787C17.5122 17.4841 19.7388 16.7908 21.768 16.0626C23.7228 15.3611 25.5411 14.668 27.7632 14.2159C28.4353 16.3706 30.4288 17.9547 32.7978 17.9547C35.167 17.9547 37.1625 16.3707 37.8346 14.2159C40.0559 14.6681 41.8729 15.3612 43.8277 16.0626C45.8571 16.7908 48.0849 17.4844 50.9615 17.787C51.1404 18.39 51.4894 18.9154 51.9594 19.3127L43.4654 41.9646C43.4205 42.0836 43.3973 42.2097 43.3971 42.3371C43.3971 42.3371 43.3859 44.7134 44.7262 47.0965C46.0666 49.4795 48.9127 51.8765 53.9964 51.8765C59.0802 51.8765 61.9262 49.4795 63.2667 47.0965C64.6071 44.7134 64.5957 42.3371 64.5957 42.3371C64.5955 42.2097 64.5725 42.0836 64.5274 41.9646L56.0335 19.3127C56.5514 18.8759 56.933 18.2868 57.0913 17.609C60.0197 16.971 62.0039 15.661 62.0039 15.661C62.9067 15.0782 62.4693 13.6767 61.3952 13.7109C61.1922 13.7189 60.9953 13.7821 60.828 13.8971C60.828 13.8971 59.2399 14.9425 56.8346 15.4995C56.3102 14.4538 55.2342 13.7232 53.9944 13.7232C52.6867 13.7232 51.554 14.5285 51.0692 15.6671C48.4795 15.3843 46.5015 14.7693 44.544 14.0669C42.5816 13.3627 40.5772 12.5911 38.0665 12.1002C37.9086 10.6096 37.1139 9.3134 35.9756 8.45054V4.17763C35.9756 2.43437 34.5411 1 32.7978 1ZM32.7978 3.12185C33.4034 3.12185 33.8536 3.57212 33.8536 4.17763V7.46725C33.5121 7.39755 33.1592 7.36138 32.7978 7.36138C32.4336 7.36138 32.0778 7.3975 31.7338 7.46921V4.17763C31.7338 3.57208 32.1923 3.12185 32.7978 3.12185ZM32.7978 9.48151C34.5666 9.48151 35.9756 10.8904 35.9756 12.6591C35.9756 14.4278 34.5666 15.8348 32.7978 15.8348C31.0291 15.8348 29.6222 14.4278 29.6222 12.6591C29.6222 10.8904 31.0291 9.48151 32.7978 9.48151ZM11.6034 15.8348C12.2014 15.8348 12.6592 16.301 12.6592 16.8989C12.6592 17.4969 12.2014 17.9547 11.6034 17.9547C11.0055 17.9547 10.5373 17.4969 10.5373 16.8989C10.5373 16.301 11.0055 15.8348 11.6034 15.8348ZM53.9943 15.8348C54.5923 15.8348 55.0584 16.301 55.0584 16.8989C55.0584 17.4969 54.5923 17.9547 53.9943 17.9547C53.3964 17.9547 52.9386 17.4969 52.9386 16.8989C52.9386 16.301 53.3964 15.8348 53.9943 15.8348ZM30.6614 20.0601C30.076 20.0721 29.6107 20.5553 29.6222 21.1407V53.9943H22.1965C20.4532 53.9943 19.0209 55.435 19.0209 57.1783V58.2341C17.2776 58.2341 15.8349 59.6768 15.8349 61.42V63.5316C15.8326 64.1202 16.3103 64.5979 16.8989 64.5957H48.6968C49.2821 64.5933 49.7548 64.117 49.7526 63.5316V61.42C49.7526 59.6768 48.3202 58.2341 46.5769 58.2341V57.1783C46.5769 55.435 45.1445 53.9943 43.4013 53.9943H35.9756V21.1407C35.9872 20.5423 35.5016 20.053 34.9032 20.0601C34.3137 20.0641 33.8422 20.5512 33.8536 21.1407V53.9943H31.7338V21.1407C31.7454 20.5423 31.2598 20.053 30.6614 20.0601ZM11.5434 20.072C11.5638 20.0724 11.5829 20.0801 11.6034 20.0801C11.6219 20.0801 11.6388 20.076 11.6572 20.072L19.6109 41.2809H3.58772L11.5434 20.072ZM53.9405 20.072C53.9589 20.0724 53.9758 20.0801 53.9943 20.0801C54.014 20.0801 54.0324 20.076 54.0523 20.072L62.008 41.2809H45.9848L53.9405 20.072ZM3.24407 43.4029H19.9545C19.8409 44.0823 19.6016 45.0302 19.0229 46.0589C17.9785 47.9156 16.0549 49.7583 11.5993 49.7583C7.14366 49.7583 5.22004 47.9156 4.17565 46.0589C3.59699 45.0302 3.35764 44.0823 3.24407 43.4029ZM45.6412 43.4029H62.3516C62.2381 44.0823 61.9987 45.0302 61.4201 46.0589C60.3757 47.9156 58.452 49.7583 53.9964 49.7583C49.5408 49.7583 47.6172 47.9156 46.5728 46.0589C45.9941 45.0302 45.7548 44.0823 45.6412 43.4029ZM22.1965 56.1158C29.3363 56.161 36.2372 56.1158 43.4013 56.1158C44.0068 56.1158 44.4571 56.5744 44.4571 57.1799V58.2357H39.1595C37.7449 58.2357 37.7449 60.3576 39.1595 60.3576H46.5769C47.1824 60.3576 47.6327 60.8161 47.6327 61.4216V62.4774H17.9547V61.4216C17.9547 60.8161 18.4153 60.3576 19.0209 60.3576H34.9198C36.3344 60.3576 36.3344 58.2357 34.9198 58.2357H21.1407V57.1799C21.1407 56.5744 21.591 56.1158 22.1965 56.1158Z" stroke="white" stroke-width="0.4" mask="url(#path-1-outside-1_12_555)"/>
</g>
</svg>
