<svg width="66" height="59" viewBox="0 0 66 59" fill="none" xmlns="http://www.w3.org/2000/svg">
<path id="Vector" d="M33.8109 4.80665C33.6457 5.41882 33.7287 6.05622 34.0446 6.59961L33.8109 4.80665ZM33.8109 4.80665C33.9762 4.19371 34.3682 3.68318 34.9154 3.36907L33.8109 4.80665ZM55.0716 14.6116L55.0717 14.6116L60.5913 11.4425C60.5913 11.4425 60.5913 11.4425 60.5913 11.4424L60.5917 11.4422L60.7162 11.659C61.2089 11.3747 61.8407 11.5436 62.1258 12.0343L55.0716 14.6116ZM55.0716 14.6116C54.4591 14.9636 54.2475 15.744 54.6024 16.3545L55.0716 14.6116ZM57.7777 22.3066C57.7775 22.3067 57.7772 22.3067 57.7769 22.3067C57.7287 22.3123 57.6808 22.3152 57.6326 22.3152C56.9892 22.3152 56.4335 21.8348 56.3597 21.1816C56.2802 20.4797 56.7886 19.8487 57.4912 19.7708L57.7777 22.3066ZM57.7777 22.3066L64.1101 21.6006L57.7777 22.3066ZM49.5295 13.7057L49.5295 13.7057C48.3206 13.0554 47.1046 12.866 46.0246 13.17L40.1674 3.08236C39.5428 2.00561 38.5293 1.23525 37.3171 0.911923C36.1047 0.588543 34.8401 0.753075 33.758 1.37378C32.6758 1.99461 31.8997 3.00234 31.575 4.209C31.486 4.53976 31.4386 4.8732 31.423 5.20369L19.0809 21.3294C19.0806 21.3298 19.0803 21.3302 19.08 21.3305C16.5446 24.5664 15.0951 26.267 13.6136 27.535C13.5191 27.5956 13.438 27.666 13.3672 27.742C11.9824 28.8799 10.5115 29.6994 8.03302 31.079L8.033 31.0791L7.98648 31.1049C7.01589 31.6453 5.90018 32.2665 4.58914 33.0196C1.01225 35.0735 -0.311727 39.5181 1.67362 42.9381L1.88983 42.8126L1.67363 42.9381L4.98702 48.6449L5.20322 48.5193L4.98703 48.6449C6.29174 50.8918 8.69961 52.1298 11.2105 52.1298C12.52 52.1298 13.8581 51.7939 15.0872 51.0886L15.0891 51.0875C15.9101 50.6068 16.6393 50.1708 17.3073 49.7691L24.0235 56.997C24.785 57.8167 25.9024 58.25 26.9981 58.25C27.6548 58.25 28.3127 58.0942 28.8858 57.7651L31.2807 56.3902C32.0828 55.9299 32.6276 55.1707 32.7599 54.3005C32.8955 53.4114 32.5897 52.5012 31.9389 51.8006L31.9389 51.8006L26.0757 45.4905C27.6212 45.1261 29.5804 44.83 32.492 44.46C32.492 44.46 32.492 44.46 32.492 44.46L52.7227 41.8928C53.0181 42.0444 53.3319 42.1701 53.6647 42.2586C54.0707 42.3666 54.4827 42.4199 54.8918 42.4199C55.704 42.4199 56.5048 42.209 57.2238 41.7958C58.306 41.175 59.0819 40.1673 59.4073 38.9609L59.4074 38.9607C59.732 37.7542 59.5672 36.4957 58.9418 35.419C58.9418 35.4189 58.9418 35.4189 58.9417 35.4189L53.087 25.3328C53.8905 24.5547 54.3341 23.413 54.3716 22.0461C54.4138 20.5054 53.935 18.8047 53.0344 17.2532C52.1337 15.7018 50.8927 14.4396 49.5295 13.7057ZM48.3093 15.9518L48.3095 15.9519C49.2302 16.4474 50.1479 17.3843 50.8134 18.5314L50.8135 18.5314C51.4791 19.678 51.8365 20.9363 51.8074 21.9764L51.8074 21.9765C51.7978 22.3222 51.7461 22.6259 51.6616 22.88L47.4481 15.6234C47.7115 15.6779 48.0028 15.7865 48.3093 15.9518ZM3.89454 41.6599L3.67834 41.7854L3.89453 41.6599C2.63099 39.484 3.49504 36.594 5.87107 35.2301L5.87114 35.2301C7.15237 34.4942 8.24546 33.8856 9.20006 33.3541L9.28539 33.3066C11.2619 32.2062 12.6738 31.42 13.9338 30.5224L21.8821 44.2116C20.5229 44.8354 19.1731 45.6529 17.2735 46.8037L17.2734 46.8038C17.1888 46.8551 17.0993 46.9092 17.0098 46.9633C16.9724 46.9859 16.935 47.0085 16.8979 47.0309L16.8965 47.0314L16.8723 47.046C15.9853 47.5837 14.9822 48.188 13.7983 48.8816C11.4225 50.2444 8.47192 49.5433 7.20792 47.3666L3.89454 41.6599ZM16.8706 47.0477C16.8697 47.0483 16.8699 47.0481 16.8709 47.0475L16.8706 47.0477ZM30.0573 53.5322L30.0577 53.5327C30.2042 53.6903 30.239 53.8274 30.2258 53.9158C30.2095 54.0191 30.1216 54.1083 30 54.1783L27.6064 55.5529C27.6064 55.5529 27.6063 55.553 27.6063 55.553C27.3796 55.6827 27.058 55.7252 26.7279 55.6699C26.3986 55.6147 26.0967 55.4678 25.907 55.2635L25.907 55.2634L19.5449 48.4163C21.0954 47.4827 22.2248 46.8351 23.4057 46.3398L30.0573 53.5322ZM32.1685 41.9272L32.2 42.1752L32.1685 41.9272C28.4621 42.3977 26.1592 42.7737 24.318 43.3074L15.9385 28.875C17.3433 27.5527 18.8504 25.7739 21.11 22.8896L21.1117 22.8874L32.3236 8.23899L50.5304 39.597L32.1685 41.9272ZM55.9441 39.5846L55.944 39.5847C55.4557 39.8653 54.8828 39.939 54.3298 39.7922C53.7765 39.6447 53.3189 39.296 53.0367 38.81L52.8205 38.9355L53.0367 38.81L34.2608 6.47407L34.2607 6.47396C33.9787 5.98885 33.9043 5.42022 34.0523 4.8718L34.0523 4.87173C34.2004 4.32236 34.5507 3.86669 35.0399 3.58589L35.04 3.58579C35.3646 3.39911 35.7259 3.3042 36.0937 3.3042C36.2799 3.3042 36.4681 3.32878 36.6552 3.37839C37.2085 3.52595 37.6659 3.87454 37.948 4.36049L38.1642 4.23498L37.948 4.36051L56.723 36.6962C57.0045 37.1822 57.0789 37.7503 56.9316 38.2988C56.7835 38.8481 56.4333 39.3038 55.9441 39.5846ZM51.0072 10.645L51.0071 10.645C50.5863 11.2128 50.7081 12.0128 51.2785 12.4308C51.5074 12.5987 51.7741 12.6794 52.0381 12.6794C52.43 12.6794 52.819 12.5005 53.0706 12.1609L56.8527 7.05955L56.8528 7.05953C57.2736 6.49168 57.1518 5.69176 56.5814 5.27373C56.012 4.85645 55.2098 4.97639 54.7894 5.54354C54.7894 5.54354 54.7894 5.54355 54.7894 5.54356L51.0072 10.645ZM63.8241 19.0648L57.4914 19.7708L64.1104 21.6006C64.8128 21.5228 65.3214 20.8918 65.2418 20.1906C65.1626 19.4906 64.5295 18.9833 63.8246 19.0647C63.8244 19.0647 63.8242 19.0647 63.8241 19.0648Z" fill="white" stroke="white" stroke-width="0.5"/>
</svg>
