<svg width="462" height="171" viewBox="0 0 462 171" fill="none" xmlns="http://www.w3.org/2000/svg">
<circle cx="277.5" cy="86.5" r="15.5" stroke="#00CCCB" stroke-width="6"/>
<circle cx="12" cy="87" r="10.0541" stroke="#00CCCB" stroke-width="3.89189"/>
<path d="M110.76 160.547C111.101 163.464 112.404 165.795 114.384 167.303C116.357 168.806 119.006 169.496 122.049 169.14C125.057 168.788 127.458 167.505 129.021 165.584C130.586 163.662 131.314 161.096 130.974 158.183L130.164 151.262C130.125 150.927 130.188 150.664 130.341 150.469C130.499 150.268 130.745 150.151 131.067 150.113L132.53 149.942L132.186 147L128.504 147.43C127.694 147.525 127.143 147.758 126.825 148.162C126.507 148.566 126.409 149.159 126.505 149.974L127.49 158.396C127.734 160.482 127.282 162.223 126.277 163.51C125.25 164.825 123.651 165.658 121.63 165.894C119.596 166.132 117.853 165.694 116.558 164.664C115.281 163.649 114.446 162.063 114.203 159.988L113.214 151.529C113.119 150.714 112.878 150.162 112.467 149.843C112.054 149.523 111.455 149.424 110.643 149.519L107 149.945L107.344 152.888L108.807 152.716C109.128 152.679 109.395 152.736 109.595 152.895C109.789 153.05 109.911 153.291 109.95 153.626L110.76 160.547Z" fill="#00CCCB" stroke="#00CCCB" stroke-width="0.542986" stroke-miterlimit="22.9256"/>
<circle cx="406.5" cy="159.5" r="7.12162" stroke="#00CCCB" stroke-width="2.75676"/>
<path d="M182.76 14.5471C183.101 17.4639 184.404 19.7947 186.384 21.3027C188.357 22.8055 191.006 23.4955 194.049 23.1397C197.057 22.7879 199.458 21.5047 201.021 19.5842C202.586 17.6622 203.314 15.0965 202.974 12.183L202.164 5.26156C202.125 4.92694 202.188 4.66401 202.341 4.46913C202.499 4.26814 202.745 4.15069 203.067 4.11311L204.53 3.94202L204.186 0.99978L200.504 1.43031C199.694 1.5251 199.143 1.7576 198.825 2.16177C198.507 2.56617 198.409 3.15906 198.505 3.9741L199.49 12.3957C199.734 14.4818 199.282 16.2234 198.277 17.5103C197.25 18.8246 195.651 19.6581 193.63 19.8944C191.596 20.1323 189.853 19.6939 188.558 18.6638C187.281 17.6486 186.446 16.0631 186.203 13.9882L185.214 5.52852C185.119 4.7143 184.878 4.16187 184.467 3.84266C184.054 3.52282 183.455 3.42432 182.643 3.51924L179 3.94531L179.344 6.88755L180.807 6.71649C181.128 6.67888 181.395 6.73631 181.595 6.8954C181.789 7.0497 181.911 7.29103 181.95 7.62565L182.76 14.5471Z" fill="#00CCCB" stroke="#00CCCB" stroke-width="0.542986" stroke-miterlimit="22.9256"/>
<path d="M424.99 29.1019C423.609 33.1031 423.823 36.9382 425.414 40.1225C426.999 43.2953 429.955 45.8303 434.066 47.2497C438.13 48.653 441.999 48.4708 445.194 46.9421C448.392 45.4122 450.922 42.5286 452.302 38.5319L455.58 29.037C455.739 28.578 455.983 28.2752 456.3 28.1167C456.627 27.9533 457.015 27.9531 457.45 28.103L459.426 28.7854L460.82 24.7493L455.846 23.0319C454.751 22.6538 453.902 22.6152 453.243 22.9438C452.585 23.2728 452.091 23.9828 451.705 25.1008L447.716 36.6536C446.728 39.5153 445.065 41.499 442.978 42.5495C440.847 43.6224 438.283 43.7164 435.553 42.7738C432.806 41.8251 430.85 40.1772 429.837 38.0378C428.837 35.9287 428.758 33.3518 429.74 30.5055L433.747 18.9005C434.133 17.7835 434.169 16.9167 433.843 16.2478C433.515 15.577 432.81 15.0781 431.713 14.6995L426.791 13L425.397 17.0362L427.374 17.7185C427.808 17.8685 428.113 18.1081 428.27 18.4387C428.422 18.7591 428.427 19.148 428.269 19.6071L424.99 29.1019Z" fill="#00CCCB" stroke="#00CCCB" stroke-width="0.542986" stroke-miterlimit="22.9256"/>
</svg>
