<svg width="62" height="60" viewBox="0 0 62 60" fill="none" xmlns="http://www.w3.org/2000/svg">
<g id="icon">
<path id="Vector" d="M0.75 7.89783V7.89818V38.2273C0.75 42.1403 3.59462 45.3755 7.14316 45.3755H54.8568C58.4085 45.3755 61.2445 42.1386 61.25 38.2264V38.226V7.89818C61.25 3.98521 58.4054 0.75 54.8568 0.75H7.14316C3.59159 0.75 0.755496 3.98555 0.75 7.89783ZM3.38675 7.89818C3.38675 5.34719 5.11526 3.3503 7.14316 3.3503H54.8568C56.8899 3.3503 58.6133 5.34696 58.6133 7.89818V38.226C58.6133 40.777 56.8847 42.7739 54.8568 42.7739H7.14316C5.11011 42.7739 3.38675 40.7772 3.38675 38.226V7.89818Z" fill="white" stroke="white" stroke-width="0.5"/>
<path id="Vector_2" d="M37.1968 52.141V52.1407V44.0755C37.1968 43.7293 37.0569 43.3982 36.8092 43.1547C36.5616 42.9113 36.2267 42.7754 35.8785 42.7754C35.5302 42.7754 35.1953 42.9113 34.9478 43.1547C34.7001 43.3982 34.5601 43.7293 34.5601 44.0755V52.1394C34.5601 52.4856 34.7001 52.8168 34.9478 53.0602C35.1953 53.3036 35.5302 53.4395 35.8785 53.4395C36.2265 53.4395 36.5611 53.3038 36.8086 53.0608C37.0562 52.8177 37.1964 52.487 37.1968 52.141ZM25.1908 53.0602L25.3661 52.882L25.1908 53.0602C25.4384 53.3036 25.7732 53.4395 26.1215 53.4395C26.4695 53.4395 26.8041 53.3038 27.0516 53.0608L26.8765 52.8824L27.0516 53.0608C27.2993 52.8177 27.4395 52.487 27.4399 52.141V52.1407V44.0755C27.4399 43.7293 27.2999 43.3982 27.0522 43.1547C26.8047 42.9113 26.4698 42.7754 26.1215 42.7754C25.7732 42.7754 25.4384 42.9113 25.1908 43.1547C24.9431 43.3982 24.8031 43.7293 24.8031 44.0755V52.1394C24.8031 52.4856 24.9431 52.8168 25.1908 53.0602Z" fill="white" stroke="white" stroke-width="0.5"/>
<path id="Vector_3" d="M19.8165 55.1309V55.1311V58.1214C19.8165 58.4676 19.9565 58.7988 20.2042 59.0423C20.4517 59.2856 20.7866 59.4216 21.1349 59.4216H40.8651C41.2134 59.4216 41.5483 59.2856 41.7958 59.0423C42.0435 58.7988 42.1835 58.4676 42.1835 58.1214V55.1311V55.1309C42.1824 53.9919 41.7216 52.9007 40.9037 52.0965C40.086 51.2925 38.9781 50.8408 37.8232 50.8394H37.8229L24.1771 50.8394L24.1768 50.8394C23.0219 50.8408 21.914 51.2925 21.0963 52.0965C20.2784 52.9007 19.8176 53.9919 19.8165 55.1309ZM39.5467 55.1313V56.8213H22.4533V55.1313C22.4536 54.6843 22.6342 54.2549 22.957 53.9374C23.2799 53.6198 23.7187 53.4403 24.1772 53.4397C24.1773 53.4397 24.1774 53.4397 24.1774 53.4397H37.8226C37.8226 53.4397 37.8227 53.4397 37.8228 53.4397C38.2814 53.4403 38.7201 53.6198 39.043 53.9374C39.3658 54.2549 39.5464 54.6843 39.5467 55.1313Z" fill="white" stroke="white" stroke-width="0.5"/>
<g id="Vector_4">
<mask id="path-4-outside-1_12_479" maskUnits="userSpaceOnUse" x="5.69987" y="9.38965" width="29" height="30" fill="black">
<rect fill="white" x="5.69987" y="9.38965" width="29" height="30"/>
<path d="M22.6573 38.0217H17.9832C17.4246 38.0214 16.889 37.8032 16.4939 37.4151C16.0988 37.027 15.8765 36.5007 15.8758 35.9516V33.9537C15.2001 33.6563 14.5575 33.2912 13.9581 32.8642L12.1966 33.8631C11.7126 34.1369 11.1378 34.211 10.5984 34.069C10.0589 33.927 9.59874 33.5806 9.31866 33.1057L6.98158 29.1257C6.70267 28.65 6.62716 28.0849 6.77163 27.5546C6.9161 27.0242 7.26874 26.5719 7.75215 26.2968L9.51363 25.2965C9.43883 24.5729 9.43883 23.8437 9.51363 23.1201L7.75215 22.1198C7.26883 21.845 6.91621 21.3929 6.77174 20.8628C6.62726 20.3326 6.70274 19.7678 6.98158 19.2923L9.31866 15.3109C9.59849 14.8358 10.0587 14.4891 10.5982 14.3471C11.1378 14.2051 11.7126 14.2793 12.1966 14.5535L13.9581 15.5525C14.5578 15.1259 15.2004 14.7608 15.8758 14.4629V12.465C15.8755 12.1928 15.9297 11.9232 16.0353 11.6716C16.141 11.42 16.296 11.1913 16.4915 10.9986C16.6871 10.8059 16.9194 10.6529 17.1751 10.5484C17.4308 10.4439 17.7049 10.39 17.9818 10.3896H22.656C23.2146 10.39 23.7502 10.6082 24.1453 10.9963C24.5404 11.3844 24.7627 11.9107 24.7634 12.4598V14.459C25.4388 14.7569 26.0814 15.1219 26.6811 15.5485L28.4426 14.5496C28.9265 14.2754 29.5014 14.2012 30.0409 14.3432C30.5805 14.4852 31.0407 14.8318 31.3205 15.307L33.6576 19.287C33.9365 19.7627 34.012 20.3278 33.8675 20.8581C33.7231 21.3885 33.3704 21.8408 32.887 22.1159L31.1336 23.1227C31.2084 23.8463 31.2084 24.5755 31.1336 25.2992L32.895 26.2994C33.3785 26.5745 33.7311 27.0268 33.8756 27.5572C34.02 28.0876 33.9445 28.6526 33.6656 29.1283L31.3285 33.1083C31.0487 33.5835 30.5885 33.9301 30.0489 34.0721C29.5094 34.2141 28.9345 34.1399 28.4506 33.8658L26.6891 32.8668C26.0892 33.2931 25.4466 33.6582 24.7714 33.9563V35.9543C24.7707 36.2264 24.7154 36.4958 24.6088 36.7471C24.5022 36.9983 24.3463 37.2264 24.15 37.4184C23.9537 37.6103 23.7208 37.7624 23.4647 37.866C23.2086 37.9695 22.9342 38.0224 22.6573 38.0217ZM18.0112 35.9214H22.6279V33.2488C22.6279 33.0338 22.695 32.824 22.8201 32.6477C22.9453 32.4714 23.1225 32.3371 23.3277 32.263C24.2676 31.9231 25.1409 31.4267 25.9092 30.7954C26.0772 30.6574 26.2842 30.5735 26.5022 30.5549C26.7203 30.5364 26.9389 30.5841 27.1285 30.6917L29.4856 32.0293L31.7933 28.1004L29.4375 26.7628C29.2483 26.6556 29.097 26.4939 29.0041 26.2995C28.9112 26.1052 28.8812 25.8875 28.918 25.6759C29.089 24.7047 29.089 23.7119 28.918 22.7407C28.8812 22.5291 28.9112 22.3114 29.0041 22.1171C29.097 21.9227 29.2483 21.7611 29.4375 21.6538L31.7933 20.3162L29.4856 16.3873L27.1271 17.725C26.9376 17.8325 26.719 17.8803 26.5009 17.8617C26.2828 17.8432 26.0758 17.7592 25.9079 17.6212C25.1395 16.9899 24.2663 16.4935 23.3264 16.1537C23.1211 16.0795 22.944 15.9452 22.8188 15.7689C22.6937 15.5926 22.6266 15.3828 22.6266 15.1678V12.4899H18.0112V15.1678C18.0113 15.3828 17.9442 15.5926 17.819 15.7689C17.6939 15.9452 17.5167 16.0795 17.3114 16.1537C16.3716 16.4935 15.4983 16.9899 14.73 17.6212C14.562 17.7592 14.355 17.8432 14.1369 17.8617C13.9189 17.8803 13.7003 17.8325 13.5107 17.725L11.1536 16.3873L8.8459 20.3162L11.2017 21.6538C11.3909 21.7611 11.5422 21.9227 11.6351 22.1171C11.728 22.3114 11.758 22.5291 11.7212 22.7407C11.5502 23.7119 11.5502 24.7047 11.7212 25.6759C11.758 25.8875 11.728 26.1052 11.6351 26.2995C11.5422 26.4939 11.3909 26.6556 11.2017 26.7628L8.84456 28.1004L11.1536 32.0293L13.5054 30.6917C13.6949 30.5841 13.9135 30.5364 14.1316 30.5549C14.3497 30.5735 14.5567 30.6574 14.7246 30.7954C15.493 31.4267 16.3662 31.9231 17.3061 32.263C17.5114 32.3371 17.6885 32.4714 17.8137 32.6477C17.9388 32.824 18.0059 33.0338 18.0059 33.2488L18.0112 35.9214Z"/>
</mask>
<path d="M22.6573 38.0217H17.9832C17.4246 38.0214 16.889 37.8032 16.4939 37.4151C16.0988 37.027 15.8765 36.5007 15.8758 35.9516V33.9537C15.2001 33.6563 14.5575 33.2912 13.9581 32.8642L12.1966 33.8631C11.7126 34.1369 11.1378 34.211 10.5984 34.069C10.0589 33.927 9.59874 33.5806 9.31866 33.1057L6.98158 29.1257C6.70267 28.65 6.62716 28.0849 6.77163 27.5546C6.9161 27.0242 7.26874 26.5719 7.75215 26.2968L9.51363 25.2965C9.43883 24.5729 9.43883 23.8437 9.51363 23.1201L7.75215 22.1198C7.26883 21.845 6.91621 21.3929 6.77174 20.8628C6.62726 20.3326 6.70274 19.7678 6.98158 19.2923L9.31866 15.3109C9.59849 14.8358 10.0587 14.4891 10.5982 14.3471C11.1378 14.2051 11.7126 14.2793 12.1966 14.5535L13.9581 15.5525C14.5578 15.1259 15.2004 14.7608 15.8758 14.4629V12.465C15.8755 12.1928 15.9297 11.9232 16.0353 11.6716C16.141 11.42 16.296 11.1913 16.4915 10.9986C16.6871 10.8059 16.9194 10.6529 17.1751 10.5484C17.4308 10.4439 17.7049 10.39 17.9818 10.3896H22.656C23.2146 10.39 23.7502 10.6082 24.1453 10.9963C24.5404 11.3844 24.7627 11.9107 24.7634 12.4598V14.459C25.4388 14.7569 26.0814 15.1219 26.6811 15.5485L28.4426 14.5496C28.9265 14.2754 29.5014 14.2012 30.0409 14.3432C30.5805 14.4852 31.0407 14.8318 31.3205 15.307L33.6576 19.287C33.9365 19.7627 34.012 20.3278 33.8675 20.8581C33.7231 21.3885 33.3704 21.8408 32.887 22.1159L31.1336 23.1227C31.2084 23.8463 31.2084 24.5755 31.1336 25.2992L32.895 26.2994C33.3785 26.5745 33.7311 27.0268 33.8756 27.5572C34.02 28.0876 33.9445 28.6526 33.6656 29.1283L31.3285 33.1083C31.0487 33.5835 30.5885 33.9301 30.0489 34.0721C29.5094 34.2141 28.9345 34.1399 28.4506 33.8658L26.6891 32.8668C26.0892 33.2931 25.4466 33.6582 24.7714 33.9563V35.9543C24.7707 36.2264 24.7154 36.4958 24.6088 36.7471C24.5022 36.9983 24.3463 37.2264 24.15 37.4184C23.9537 37.6103 23.7208 37.7624 23.4647 37.866C23.2086 37.9695 22.9342 38.0224 22.6573 38.0217ZM18.0112 35.9214H22.6279V33.2488C22.6279 33.0338 22.695 32.824 22.8201 32.6477C22.9453 32.4714 23.1225 32.3371 23.3277 32.263C24.2676 31.9231 25.1409 31.4267 25.9092 30.7954C26.0772 30.6574 26.2842 30.5735 26.5022 30.5549C26.7203 30.5364 26.9389 30.5841 27.1285 30.6917L29.4856 32.0293L31.7933 28.1004L29.4375 26.7628C29.2483 26.6556 29.097 26.4939 29.0041 26.2995C28.9112 26.1052 28.8812 25.8875 28.918 25.6759C29.089 24.7047 29.089 23.7119 28.918 22.7407C28.8812 22.5291 28.9112 22.3114 29.0041 22.1171C29.097 21.9227 29.2483 21.7611 29.4375 21.6538L31.7933 20.3162L29.4856 16.3873L27.1271 17.725C26.9376 17.8325 26.719 17.8803 26.5009 17.8617C26.2828 17.8432 26.0758 17.7592 25.9079 17.6212C25.1395 16.9899 24.2663 16.4935 23.3264 16.1537C23.1211 16.0795 22.944 15.9452 22.8188 15.7689C22.6937 15.5926 22.6266 15.3828 22.6266 15.1678V12.4899H18.0112V15.1678C18.0113 15.3828 17.9442 15.5926 17.819 15.7689C17.6939 15.9452 17.5167 16.0795 17.3114 16.1537C16.3716 16.4935 15.4983 16.9899 14.73 17.6212C14.562 17.7592 14.355 17.8432 14.1369 17.8617C13.9189 17.8803 13.7003 17.8325 13.5107 17.725L11.1536 16.3873L8.8459 20.3162L11.2017 21.6538C11.3909 21.7611 11.5422 21.9227 11.6351 22.1171C11.728 22.3114 11.758 22.5291 11.7212 22.7407C11.5502 23.7119 11.5502 24.7047 11.7212 25.6759C11.758 25.8875 11.728 26.1052 11.6351 26.2995C11.5422 26.4939 11.3909 26.6556 11.2017 26.7628L8.84456 28.1004L11.1536 32.0293L13.5054 30.6917C13.6949 30.5841 13.9135 30.5364 14.1316 30.5549C14.3497 30.5735 14.5567 30.6574 14.7246 30.7954C15.493 31.4267 16.3662 31.9231 17.3061 32.263C17.5114 32.3371 17.6885 32.4714 17.8137 32.6477C17.9388 32.824 18.0059 33.0338 18.0059 33.2488L18.0112 35.9214Z" fill="white"/>
<path d="M22.6573 38.0217H17.9832C17.4246 38.0214 16.889 37.8032 16.4939 37.4151C16.0988 37.027 15.8765 36.5007 15.8758 35.9516V33.9537C15.2001 33.6563 14.5575 33.2912 13.9581 32.8642L12.1966 33.8631C11.7126 34.1369 11.1378 34.211 10.5984 34.069C10.0589 33.927 9.59874 33.5806 9.31866 33.1057L6.98158 29.1257C6.70267 28.65 6.62716 28.0849 6.77163 27.5546C6.9161 27.0242 7.26874 26.5719 7.75215 26.2968L9.51363 25.2965C9.43883 24.5729 9.43883 23.8437 9.51363 23.1201L7.75215 22.1198C7.26883 21.845 6.91621 21.3929 6.77174 20.8628C6.62726 20.3326 6.70274 19.7678 6.98158 19.2923L9.31866 15.3109C9.59849 14.8358 10.0587 14.4891 10.5982 14.3471C11.1378 14.2051 11.7126 14.2793 12.1966 14.5535L13.9581 15.5525C14.5578 15.1259 15.2004 14.7608 15.8758 14.4629V12.465C15.8755 12.1928 15.9297 11.9232 16.0353 11.6716C16.141 11.42 16.296 11.1913 16.4915 10.9986C16.6871 10.8059 16.9194 10.6529 17.1751 10.5484C17.4308 10.4439 17.7049 10.39 17.9818 10.3896H22.656C23.2146 10.39 23.7502 10.6082 24.1453 10.9963C24.5404 11.3844 24.7627 11.9107 24.7634 12.4598V14.459C25.4388 14.7569 26.0814 15.1219 26.6811 15.5485L28.4426 14.5496C28.9265 14.2754 29.5014 14.2012 30.0409 14.3432C30.5805 14.4852 31.0407 14.8318 31.3205 15.307L33.6576 19.287C33.9365 19.7627 34.012 20.3278 33.8675 20.8581C33.7231 21.3885 33.3704 21.8408 32.887 22.1159L31.1336 23.1227C31.2084 23.8463 31.2084 24.5755 31.1336 25.2992L32.895 26.2994C33.3785 26.5745 33.7311 27.0268 33.8756 27.5572C34.02 28.0876 33.9445 28.6526 33.6656 29.1283L31.3285 33.1083C31.0487 33.5835 30.5885 33.9301 30.0489 34.0721C29.5094 34.2141 28.9345 34.1399 28.4506 33.8658L26.6891 32.8668C26.0892 33.2931 25.4466 33.6582 24.7714 33.9563V35.9543C24.7707 36.2264 24.7154 36.4958 24.6088 36.7471C24.5022 36.9983 24.3463 37.2264 24.15 37.4184C23.9537 37.6103 23.7208 37.7624 23.4647 37.866C23.2086 37.9695 22.9342 38.0224 22.6573 38.0217ZM18.0112 35.9214H22.6279V33.2488C22.6279 33.0338 22.695 32.824 22.8201 32.6477C22.9453 32.4714 23.1225 32.3371 23.3277 32.263C24.2676 31.9231 25.1409 31.4267 25.9092 30.7954C26.0772 30.6574 26.2842 30.5735 26.5022 30.5549C26.7203 30.5364 26.9389 30.5841 27.1285 30.6917L29.4856 32.0293L31.7933 28.1004L29.4375 26.7628C29.2483 26.6556 29.097 26.4939 29.0041 26.2995C28.9112 26.1052 28.8812 25.8875 28.918 25.6759C29.089 24.7047 29.089 23.7119 28.918 22.7407C28.8812 22.5291 28.9112 22.3114 29.0041 22.1171C29.097 21.9227 29.2483 21.7611 29.4375 21.6538L31.7933 20.3162L29.4856 16.3873L27.1271 17.725C26.9376 17.8325 26.719 17.8803 26.5009 17.8617C26.2828 17.8432 26.0758 17.7592 25.9079 17.6212C25.1395 16.9899 24.2663 16.4935 23.3264 16.1537C23.1211 16.0795 22.944 15.9452 22.8188 15.7689C22.6937 15.5926 22.6266 15.3828 22.6266 15.1678V12.4899H18.0112V15.1678C18.0113 15.3828 17.9442 15.5926 17.819 15.7689C17.6939 15.9452 17.5167 16.0795 17.3114 16.1537C16.3716 16.4935 15.4983 16.9899 14.73 17.6212C14.562 17.7592 14.355 17.8432 14.1369 17.8617C13.9189 17.8803 13.7003 17.8325 13.5107 17.725L11.1536 16.3873L8.8459 20.3162L11.2017 21.6538C11.3909 21.7611 11.5422 21.9227 11.6351 22.1171C11.728 22.3114 11.758 22.5291 11.7212 22.7407C11.5502 23.7119 11.5502 24.7047 11.7212 25.6759C11.758 25.8875 11.728 26.1052 11.6351 26.2995C11.5422 26.4939 11.3909 26.6556 11.2017 26.7628L8.84456 28.1004L11.1536 32.0293L13.5054 30.6917C13.6949 30.5841 13.9135 30.5364 14.1316 30.5549C14.3497 30.5735 14.5567 30.6574 14.7246 30.7954C15.493 31.4267 16.3662 31.9231 17.3061 32.263C17.5114 32.3371 17.6885 32.4714 17.8137 32.6477C17.9388 32.824 18.0059 33.0338 18.0059 33.2488L18.0112 35.9214Z" stroke="white" mask="url(#path-4-outside-1_12_479)"/>
</g>
<path id="Vector_5" d="M26.1098 24.2086V24.2084C26.1098 23.0806 25.7696 21.9785 25.1326 21.0414C24.4957 20.1044 23.5909 19.3748 22.5331 18.944C21.4753 18.5133 20.3116 18.4006 19.1889 18.62C18.0662 18.8394 17.0343 19.3812 16.2239 20.1776C15.4135 20.974 14.861 21.9892 14.637 23.0952C14.413 24.2012 14.5278 25.3476 14.9665 26.3893C15.4052 27.4309 16.148 28.3205 17.1003 28.9463C18.0525 29.5719 19.1716 29.9058 20.3162 29.9061H20.3164C21.851 29.905 23.3232 29.3054 24.4097 28.2377C25.4964 27.1699 26.1083 25.7209 26.1098 24.2086ZM18.562 21.6347C19.0808 21.2937 19.6912 21.1113 20.3162 21.111C21.1544 21.1117 21.9572 21.4393 22.5488 22.0205C23.1402 22.6016 23.4721 23.3886 23.473 24.2087C23.473 24.8202 23.2885 25.4183 22.9425 25.9274C22.5963 26.4367 22.1038 26.8343 21.5268 27.0693C20.9498 27.3043 20.3146 27.3659 19.7017 27.2462C19.0888 27.1264 18.5263 26.8309 18.0853 26.3975C17.6442 25.9641 17.3443 25.4125 17.2228 24.8126C17.1012 24.2127 17.1633 23.5908 17.4014 23.0253C17.6395 22.4598 18.0431 21.9757 18.562 21.6347Z" fill="white" stroke="white" stroke-width="0.5"/>
<path id="Vector_6" d="M41.1896 21.4284H54.2372C54.5855 21.4284 54.9203 21.2925 55.1679 21.0491C55.4156 20.8057 55.5556 20.4745 55.5556 20.1283C55.5556 19.7821 55.4156 19.4509 55.1679 19.2074C54.9203 18.9641 54.5855 18.8281 54.2372 18.8281H41.1896C40.8414 18.8281 40.5065 18.9641 40.2589 19.2074C40.0112 19.4509 39.8713 19.7821 39.8713 20.1283C39.8713 20.4745 40.0112 20.8057 40.2589 21.0491C40.5065 21.2925 40.8414 21.4284 41.1896 21.4284Z" fill="white" stroke="white" stroke-width="0.5"/>
<path id="Vector_7" d="M41.1896 29.5896H54.2372C54.5855 29.5896 54.9203 29.4536 55.1679 29.2103C55.4156 28.9668 55.5556 28.6356 55.5556 28.2894C55.5556 27.9432 55.4156 27.612 55.1679 27.3685C54.9203 27.1252 54.5855 26.9893 54.2372 26.9893H41.1896C40.8414 26.9893 40.5065 27.1252 40.2589 27.3685C40.0112 27.612 39.8713 27.9432 39.8713 28.2894C39.8713 28.6356 40.0112 28.9668 40.2589 29.2103C40.5065 29.4536 40.8414 29.5896 41.1896 29.5896Z" fill="white" stroke="white" stroke-width="0.5"/>
</g>
</svg>
