<svg width="80" height="80" viewBox="0 0 80 80" fill="none" xmlns="http://www.w3.org/2000/svg">
<g id="Frame 250">
<circle id="Ellipse 7" cx="23.6" cy="30" r="12.4" stroke="#00CCCB" stroke-width="3.2"/>
<circle id="Ellipse 9" cx="58" cy="14" r="12.4" stroke="#00CCCB" stroke-width="3.2"/>
<path id="Ellipse 8" d="M44 63.6001C44 66.7015 41.9467 69.7648 38.0848 72.1361C34.2493 74.4913 28.8493 76.0001 22.8 76.0001C16.7507 76.0001 11.3507 74.4913 7.51519 72.1361C3.6533 69.7648 1.6 66.7015 1.6 63.6001C1.6 60.4987 3.6533 57.4354 7.51519 55.0641C11.3507 52.7089 16.7507 51.2001 22.8 51.2001C28.8493 51.2001 34.2493 52.7089 38.0848 55.0641C41.9467 57.4354 44 60.4987 44 63.6001Z" stroke="#00CCCB" stroke-width="3.2"/>
<path id="Ellipse 10" d="M57.2632 60C68.4949 60 77.6 54.6274 77.6 48C77.6 41.3726 68.4949 36 57.2632 36C52.1955 36 47.5608 37.0937 44 38.9029" stroke="#00CCCB" stroke-width="3.2" stroke-linecap="round"/>
</g>
</svg>
