<svg width="85" height="68" viewBox="0 0 85 68" fill="none" xmlns="http://www.w3.org/2000/svg">
<g id="Group 23">
<path id="Vector" d="M83.3061 45.2655L80.6116 43.7144C80.8117 42.517 80.9139 41.2993 80.9139 40.0805C80.9139 38.8617 80.8128 37.644 80.6116 36.4466L83.3061 34.8966C84.9227 33.9662 85.4788 31.8984 84.5463 30.2862L80.204 22.7923C79.2703 21.1801 77.1945 20.6281 75.5789 21.5575L72.8812 23.1096C70.9967 21.5618 68.8486 20.3237 66.5683 19.4715V16.3736C66.5683 14.5127 65.0495 12.998 63.1822 12.998H54.4998C52.6325 12.998 51.1137 14.5127 51.1137 16.3736V19.4704C48.8355 20.3215 46.6864 21.5596 44.7997 23.1096L42.1031 21.5575C40.4832 20.627 38.4105 21.1823 37.4758 22.7923L33.1345 30.2862C32.2009 31.8984 32.7581 33.9662 34.3747 34.8977L37.0692 36.4466C36.8702 37.6451 36.768 38.8628 36.768 40.0805C36.768 41.2982 36.8691 42.516 37.0692 43.7144L34.3747 45.2655C32.7581 46.1959 32.202 48.2648 33.1345 49.8748L37.4769 57.3688C37.9286 58.1491 38.659 58.7065 39.5335 58.9402C40.4112 59.175 41.3222 59.0549 42.1031 58.6036L44.7997 57.0515C46.6864 58.6004 48.8344 59.8385 51.1137 60.6907V63.7876C51.1137 65.6484 52.6325 67.1631 54.4998 67.1631H63.1822C65.0495 67.1631 66.5683 65.6484 66.5683 63.7876V60.6907C68.8476 59.8385 70.9956 58.6004 72.8812 57.0515L75.5789 58.6036C77.1955 59.5341 79.2703 58.9799 80.205 57.3688L84.5452 49.8748C84.997 49.0955 85.1174 48.1855 84.8829 47.3151C84.6485 46.4425 84.0891 45.7136 83.3061 45.2655ZM77.3268 55.7126C77.3117 55.7362 77.2665 55.7501 77.2407 55.7362L73.5158 53.5923C72.8866 53.2289 72.0906 53.319 71.5571 53.8099C69.5188 55.688 67.048 57.1115 64.4138 57.9272C63.719 58.1416 63.2457 58.7827 63.2457 59.5084V63.7876C63.2457 63.8197 63.2145 63.8508 63.1833 63.8508H54.5009C54.4686 63.8508 54.4385 63.8208 54.4385 63.7876V59.5084C54.4385 58.7827 53.9652 58.1416 53.2703 57.9272C50.6361 57.1115 48.1654 55.6869 46.126 53.8099C45.8108 53.5205 45.4064 53.3704 44.9987 53.3704C44.7126 53.3704 44.4265 53.4433 44.1684 53.5923L40.4434 55.7362C40.4187 55.7501 40.3735 55.7394 40.3585 55.7137L36.0162 48.2198C36 48.1919 36.0119 48.1512 36.0398 48.1351L39.7604 45.9934C40.3897 45.63 40.7102 44.9021 40.551 44.1957C40.2488 42.8515 40.0949 41.4676 40.0949 40.0816C40.0949 38.6956 40.2488 37.3117 40.551 35.9675C40.7113 35.2611 40.3907 34.5322 39.7604 34.1699L36.0398 32.0303C36.0119 32.0131 36 31.9713 36.0172 31.9434L40.3574 24.4495C40.3735 24.4227 40.4133 24.4077 40.4445 24.4281L44.1684 26.5709C44.7965 26.9311 45.5914 26.8453 46.1271 26.3522C48.1675 24.4742 50.6372 23.0507 53.2703 22.236C53.9663 22.0205 54.4395 21.3795 54.4395 20.6549V16.3747C54.4395 16.3425 54.4697 16.3114 54.5019 16.3114H63.1844C63.2156 16.3114 63.2468 16.3425 63.2468 16.3747V20.6549C63.2468 21.3806 63.7201 22.0205 64.4149 22.236C67.0502 23.0528 69.5209 24.4763 71.5582 26.3522C72.0906 26.8421 72.8855 26.9321 73.5169 26.5709L77.2418 24.427C77.2676 24.4131 77.3117 24.4249 77.3268 24.4495L81.6679 31.9434C81.6851 31.9713 81.6733 32.0131 81.6453 32.0292L77.9248 34.1699C77.2956 34.5332 76.975 35.2611 77.1342 35.9686C77.4375 37.3117 77.5914 38.6956 77.5914 40.0816C77.5914 41.4687 77.4375 42.8526 77.1342 44.1946C76.9739 44.9021 77.2945 45.63 77.9248 45.9934L81.6453 48.1351C81.6711 48.149 81.6829 48.1951 81.6679 48.2198L77.3268 55.7126ZM58.841 28.2538C52.2969 28.2538 46.9736 33.5589 46.9736 40.0805C46.9736 46.6022 52.2969 51.9072 58.841 51.9072C65.3841 51.9072 70.7084 46.6022 70.7084 40.0805C70.7084 33.5589 65.3841 28.2538 58.841 28.2538ZM58.841 48.5949C54.1298 48.5949 50.2973 44.7756 50.2973 40.0805C50.2973 35.3854 54.1298 31.5661 58.841 31.5661C63.5523 31.5661 67.3847 35.3854 67.3847 40.0805C67.3847 44.7756 63.5523 48.5949 58.841 48.5949Z" fill="#FFFFFF"/>
<path id="Vector_2" d="M31.3754 34.5467C31.3587 33.49 31.7466 32.4496 32.486 31.6534L32.4874 31.652C32.5782 31.5543 32.6673 31.4553 32.7545 31.3551C32.2958 31.5287 31.7988 31.6237 31.2803 31.6237H18.916C16.6258 31.6237 14.7541 29.7707 14.7541 27.4676C14.7541 25.8849 15.6379 24.5148 16.934 23.8125H15.4234C13.9245 23.8125 12.6049 23.0188 11.8719 21.8246C11.7883 22.3918 11.745 22.9717 11.745 23.5614C11.745 30.1201 17.1048 35.4747 23.7079 35.4747C25.2969 35.4747 26.8285 35.172 28.2706 34.5764L31.3754 34.5467ZM31.3754 34.5467C30.8913 34.3577 30.3778 34.2613 29.8605 34.2613C29.3254 34.2613 28.7831 34.3646 28.2714 34.5761L31.3754 34.5467ZM40.899 45.0379L40.9015 45.0356C42.1162 43.922 42.5574 42.1976 42.0277 40.6383L42.0275 40.6376L40.2185 35.3177C42.6684 31.9044 43.9956 27.8118 43.9956 23.5625C43.9956 12.3997 34.8892 3.33691 23.709 3.33691C12.529 3.33691 3.42126 12.3995 3.42126 23.5625C3.42126 34.7252 12.5277 43.7881 23.7079 43.7881C25.7614 43.7881 27.7763 43.4854 29.7166 42.885L36.427 45.7855C36.4281 45.786 36.4292 45.7865 36.4303 45.7869C36.9633 46.0183 37.5272 46.1302 38.0858 46.1302C39.1071 46.1302 40.1166 45.7534 40.899 45.0379ZM14.8756 15.536C17.0636 13.1495 20.2115 11.6481 23.7079 11.6481C27.315 11.6481 30.5511 13.2461 32.7452 15.7653C32.289 15.5939 31.7953 15.5002 31.2803 15.5002H15.4234C15.2378 15.5002 15.0549 15.5124 14.8756 15.536ZM32.7058 23.562C33.9868 23.0953 34.9772 22.0175 35.3159 20.6771C35.5477 21.6012 35.6708 22.5675 35.6708 23.5614C35.6708 24.5451 35.5504 25.5138 35.3165 26.4493C34.9784 25.1077 33.9876 24.0289 32.7058 23.562Z" fill="#FFFFFF" stroke="#00CCCB" stroke-width="5" stroke-linejoin="round"/>
</g>
</svg>
